<svg width="184" height="44" viewBox="0 0 184 44" fill="none" xmlns="http://www.w3.org/2000/svg">
<path fill-rule="evenodd" clip-rule="evenodd" d="M47.6607 34.5178C46.0051 35.5409 38.706 35.0024 36.1958 35.0024V43.9056C40.2014 43.9056 44.4384 44.3005 48.3728 43.4748C50.8652 44.3364 54.7105 42.1645 56.2772 41.0875C58.6093 39.472 60.1581 37.9103 61.6357 35.4512C68.2227 24.5197 60.1225 9.92633 48.7111 9.26218C45.0437 9.04678 44.3138 9.26218 41.4476 5.54654C40.1836 3.87719 37.6022 1.077 36 0V26.6916H45.5422V18.5064C56.0991 18.5064 58.004 32.0945 47.6607 34.5178Z" fill="white"/>
<path fill-rule="evenodd" clip-rule="evenodd" d="M0 25.9504C0 30.9239 1.66177 35.9862 5.46777 39.1834C12.4365 45.0627 18.1187 43.9082 28 43.9082V34.3875H17.0108C7.52266 34.3875 6.16465 18.5435 18.4403 18.5435V26.6431H28V9.04062C19.8519 9.04062 12.4008 8.2946 6.32546 13.197C3.16273 15.7548 0 20.3375 0 25.9504Z" fill="white"/>
<path fill-rule="evenodd" clip-rule="evenodd" d="M109.893 26.1687C109.893 16.1588 123.405 17.3988 123.405 25.1084C123.405 27.1571 123.387 29.1878 121.344 30.8771C116.738 34.687 109.893 31.7757 109.893 26.1687ZM115.932 39C132.311 39 134.623 18.8365 121.631 13.3374C115.466 10.7316 110.932 14.0023 109.194 14.4157C108.28 13.0499 104.463 8.34145 103.137 8C103.137 14.3078 102.563 24.1559 103.764 29.1159C104.965 34.0041 110.036 39 115.932 39Z" fill="white"/>
<path fill-rule="evenodd" clip-rule="evenodd" d="M79.4313 26.0837C79.4313 17.2128 93.3568 17.5795 93.3568 25.7519C93.3568 35.3214 79.4313 34.4308 79.4313 26.0837ZM73 25.7519C73 31.0431 75.9905 35.6532 80.6023 37.7661C87.2678 40.8046 92.366 37.3121 93.5369 37.0152C94.6358 36.7184 98.3289 38.5694 99.7881 38.9012C99.7881 31.4796 101.175 22.3468 96.8517 17.8589C91.5733 12.3582 85.5023 11.5899 78.9449 15.2395C76.0085 16.8635 73 21.3863 73 25.7519Z" fill="white"/>
<path fill-rule="evenodd" clip-rule="evenodd" d="M133 26.0874C133 40.1934 151.894 42.9128 157 33.4035C156.093 33.1579 154.189 31.614 153.211 30.8771C152.766 30.5262 152.41 30.2279 152.054 29.9297C150.987 30.6315 146.414 35.4387 141.54 30.8946C135.313 25.0873 143.319 16.5079 149.812 20.2976C150.987 20.9818 151.022 21.2626 151.698 22.2626C153.015 21.4029 156.253 19.5432 157 18.4379C150.239 8.47243 133 12.8937 133 26.0874Z" fill="white"/>
<path fill-rule="evenodd" clip-rule="evenodd" d="M172.465 39C177.527 39 181.196 37.4388 183.647 33.7901C182.977 32.8604 179.59 30.5799 178.409 29.966C175.093 34.8777 166.52 33.4042 166.52 25.4402C166.52 21.8266 169.378 19.5286 173.505 19.5286C176.327 19.5286 177.192 20.9144 178.761 21.9493C180.102 21.5985 182.536 19.5987 184 18.8269C182.871 17.1429 181.795 15.9676 179.926 14.88C172.482 10.5998 164.369 14.1783 161.493 20.0899C158.777 25.6331 159.835 31.4044 164.104 35.4916C166.273 37.5791 169.237 39 172.465 39Z" fill="white"/>
</svg>
