<svg width="148" height="36" viewBox="0 0 148 36" fill="none" xmlns="http://www.w3.org/2000/svg">
<path opacity="0.7" d="M34.5 36L23.35 0.999998H11.65L0.5 36H11.25L12.45 31.5H22.55L23.75 36H34.5ZM17.5 12.75L20.4 23.5H14.6L17.5 12.75ZM65.2578 35.95L58.3578 22.9C61.7578 20.85 63.7578 17.4 63.7578 13.25C63.7578 9.55 62.5078 6.6 60.0078 4.35C57.5078 2.1 54.3578 0.949998 50.5078 0.949998H36.5078V35.95H46.5078V24.95H49.0078L54.5578 35.95H65.2578ZM50.3078 10.15C52.4578 10.15 53.7578 11.4 53.7578 13.45C53.7578 15.5 52.4578 16.7 50.3078 16.65H46.5078V10.15H50.3078ZM99.7344 36L88.5844 0.999998H76.8844L65.7344 36H76.4844L77.6844 31.5H87.7844L88.9844 36H99.7344ZM82.7344 12.75L85.6344 23.5H79.8344L82.7344 12.75ZM116.99 36L122.49 17.3L127.99 36H137.84L147.74 0.999998H136.74L131.99 20.25L126.34 0.999998H118.64L112.99 20.25L108.24 0.999998H97.2402L107.14 36H116.99Z" fill="white"/>
</svg>
