<svg width="71" height="84" viewBox="0 0 71 84" fill="none" xmlns="http://www.w3.org/2000/svg">
<path d="M13.8186 59C15.0909 59 16.1806 58.2277 17.0851 56.6802C25.3597 41.9582 29.664 34.295 30 33.6879L21.7592 19.269C20.8878 17.7564 19.7821 17 18.443 17H6.43233C5.66058 17 5.12609 17.2521 4.82409 17.7563C4.45521 18.2605 4.47212 18.8827 4.87407 19.6211L12.9641 33.6879C12.997 33.7237 12.997 33.739 12.9641 33.739L0.250484 56.328C-0.0834948 56.9681 -0.0834948 57.5724 0.250484 58.1419C0.584617 58.715 1.10496 59 1.80798 59H13.8186Z" fill="white"/>
<path d="M69.1591 0H57.0059C55.695 0 54.6184 0.761767 53.7789 2.28546C36.5318 33.0954 27.6054 49.0434 27 50.1248L44.0952 81.7147C44.9018 83.2382 46.0114 84 47.4232 84H59.4755C60.2148 84 60.7532 83.7461 61.0894 83.2382C61.4246 82.6609 61.4085 82.0342 61.0393 81.358L44.0961 50.1248V50.0754L70.723 2.64101C71.0923 1.93068 71.0923 1.30582 70.723 0.7627C70.4198 0.253922 69.8986 0 69.1591 0Z" fill="white"/>
</svg>
