<svg width="156" height="47" viewBox="0 0 156 47" fill="none" xmlns="http://www.w3.org/2000/svg">
<path d="M57.7587 40.5221C57.7587 40.5221 55.036 41.0917 55.2342 36.6388C55.4841 31.0036 55.3634 25.3339 55.4324 19.6987C55.5291 17.1574 54.6888 14.6693 53.0715 12.7087C52.2804 11.7163 51.2939 10.8978 50.1732 10.3039C49.0526 9.71003 47.8218 9.3536 46.5577 9.25679C43.9277 8.86612 41.2509 8.92155 38.6394 9.42076C36.9934 9.83761 35.4752 10.654 34.2189 11.7979C32.9626 12.9417 32.0069 14.3778 31.4362 15.9793C31.2466 16.4626 30.2989 21.4333 30.5746 21.4333H38.0535C38.0535 21.4333 37.0798 14.1671 43.3352 14.1671C47.178 14.1671 47.5744 17.9037 47.5744 21.8561V36.6042C47.5744 36.6042 46.3595 41.4627 41.543 41.4627C36.7266 41.4627 36.4681 33.9463 38.7169 31.9701C41.207 29.7005 45.765 28.7426 46.3681 27.9746V23.0815C46.3681 23.0815 44.7569 23.6597 42.5339 24.5227C38.4498 25.9811 32.7717 26.7664 30.7641 31.2107C30.131 32.8193 29.886 34.5549 30.049 36.2763C30.2127 39.0551 30.5487 42.3171 32.5132 44.4486C34.2365 46.3558 36.8213 46.9598 39.3028 46.9598C39.3028 46.9598 44.1537 47.771 48.5997 42.1013C48.5997 42.1013 48.3068 46.9598 54.2606 46.9598C55.6022 46.948 56.9076 46.5232 58 45.7431L57.7587 40.5221Z" fill="white"/>
<path d="M77.4083 9C73.4025 9 70.7889 11.6724 69.5589 13.2827V9.65096H62V45H69.5675V20.0493C69.7936 18.7739 70.3925 17.5947 71.2882 16.6614C72.184 15.728 73.336 15.0827 74.5982 14.8073C79.629 14.8073 79.4411 19.0899 79.4411 19.0899V45H87V19.0899C86.9744 11.0128 83.2333 9 77.4083 9Z" fill="white"/>
<path d="M131.382 13.3419C130.324 12.0141 128.993 10.9375 127.484 10.1875C125.974 9.43753 124.321 9.03224 122.642 9H119.339C116.293 9.37094 113.506 10.9269 111.563 13.3419C109.438 16.3904 108.277 20.0255 108.235 23.7625C107.979 29.8411 107.159 37.5871 111.427 42.5369C113.189 44.7494 115.661 46.2591 118.408 46.8006C124.383 47.669 129.453 45.7412 132.483 40.2183C133.203 38.9653 133.776 37.6304 134.19 36.2411C135.086 32.8718 135.043 29.2941 134.958 25.8726C134.864 21.3918 134.301 16.9023 131.382 13.3419ZM121.677 41.4254C115.498 41.4254 115.515 33.1236 115.541 28.7557C115.541 27.0189 115.686 25.2821 115.694 23.4933C115.694 19.7332 116.3 14.3145 121.122 14.3145C127.302 14.3145 127.345 21.7131 127.438 26.2895C127.531 28.6661 127.497 31.0461 127.336 33.4189C127.14 35.6246 126.764 38.4294 125.091 40.0359C124.143 40.8835 122.938 41.374 121.677 41.4254Z" fill="white"/>
<path d="M145.722 14.2463V9.71484H138V45H145.722V21.9668C149.517 13.2032 156 16.6915 156 16.6915V9.13346C150.294 8.17587 146.786 12.6303 145.722 14.2463Z" fill="white"/>
<path d="M103.758 40.5839C99.735 40.5839 98.6476 34.822 98.4468 31.8693C98.2628 29.2119 98.5472 26.5798 98.5472 23.9223C98.5472 20.2273 99.116 14.5497 103.967 14.5497H105.916V9.16733C103.759 8.81663 101.548 9.01917 99.4887 9.75632C97.4291 10.4935 95.5865 11.7415 94.1307 13.3855C90.099 18.2616 91.0777 25.3143 91.1697 31.1859C91.2199 34.4761 91.6966 39.1666 94.1307 41.6216C96.8241 44.3127 98.3883 46 106 46V40.5839H103.767H103.758Z" fill="white"/>
<path d="M26.8477 24.9434V23.2214H26.77C26.5454 18.9164 25.4401 14.3616 21.8996 11.615C19.5986 9.83289 16.7125 8.97297 13.8081 9.20418C11.0879 9.53137 9.04134 11.4084 7.63376 13.6642C7.63376 12.6138 7.63376 0 7.63376 0H0V45.4613H7.64239V42.9471C7.64239 43.6101 9.36949 45.0308 9.85308 45.4096C10.7899 46.1767 11.9127 46.6845 13.1086 46.8819C17.1241 47.5277 21.2001 45.4527 23.7389 42.4133C25.9496 39.7614 26.7268 36.3087 26.9427 32.7442C27.0432 30.144 27.0115 27.5404 26.8477 24.9434ZM13.5663 41.1734C10.1121 41.1734 8.53185 38.091 7.8151 35.9299C7.74602 35.7233 7.68557 35.5252 7.63376 35.3358V20.5953C7.74314 20.3083 7.85252 20.0213 7.96191 19.7343C9.10179 17.0308 10.5525 14.5683 13.7736 14.5683C17.8495 14.5683 18.9549 19.2177 19.2053 23.1784V31.6765C19.2053 31.9865 19.2053 32.305 19.1448 32.6236C18.8512 36.7909 17.7286 41.1734 13.5663 41.1734Z" fill="white"/>
</svg>
