<svg width="243" height="48" viewBox="0 0 243 48" fill="none" xmlns="http://www.w3.org/2000/svg">
<path d="M15.5166 19.9951L24.9975 10.7547L34.4834 20L40 14.623L24.9975 0L10 14.6182L15.5166 19.9951Z" fill="white"/>
<path d="M11.7483 23.746L6.28497 18.2827L0.821399 23.7462L6.2847 29.2095L11.7483 23.746Z" fill="white"/>
<path d="M15.5227 28.0045L25.0002 37.2451L34.4823 28L40 33.374L39.9973 33.3771L25.0002 48L10.0077 33.3819L10 33.3744L15.5227 28.0045Z" fill="white"/>
<path d="M43.7072 29.2122L49.1708 23.7486L43.7075 18.2853L38.2439 23.7489L43.7072 29.2122Z" fill="white"/>
<path d="M29.9951 23.4972H29.9974L24.5 18L20.4374 22.0625H20.437L19.9705 22.5293L19.0076 23.4922L19 23.4998L19.0076 23.5078L24.5 29L29.9974 23.5028L30 23.4998L29.9951 23.4972Z" fill="white"/>
<path d="M57 11H68.4696C71.3163 11 73.4689 11.7675 74.9278 13.3026C76.0568 14.4915 76.6211 15.965 76.6211 17.7228V17.7971C76.6211 18.5399 76.5337 19.1963 76.3579 19.7655C76.1825 20.3356 75.948 20.8487 75.655 21.3068C75.3627 21.7653 75.0229 22.1677 74.6366 22.5139C74.2499 22.8609 73.8345 23.1583 73.3896 23.4054C74.8205 23.9754 75.9469 24.7488 76.7682 25.727C77.589 26.7056 78 28.0613 78 29.7943V29.8683C78 31.0572 77.7825 32.0969 77.3472 32.9888C76.9119 33.8799 76.2882 34.623 75.4762 35.2175C74.6642 35.8119 73.6878 36.2572 72.5466 36.5547C71.4055 36.8517 70.1408 37 68.753 37H57V11ZM67.3229 21.5113C68.5253 21.5113 69.4799 21.2952 70.1865 20.8615C70.8935 20.4281 71.247 19.7284 71.247 18.7629V18.6886C71.247 17.8223 70.9403 17.1601 70.3277 16.7016C69.7147 16.2435 68.8308 16.0142 67.6764 16.0142H62.3026V21.5113H67.3229ZM68.7726 31.9862C69.9746 31.9862 70.9167 31.7577 71.6008 31.2992C72.2842 30.8411 72.6262 30.1289 72.6262 29.1631V29.0891C72.6262 28.2224 72.3078 27.5355 71.6716 27.0274C71.035 26.5205 70.0099 26.2664 68.5956 26.2664H62.3026V31.9866H68.7726V31.9862Z" fill="white"/>
<path d="M86 11H92V37H86V11Z" fill="white"/>
<path d="M101 11H106.022L117.624 27.0087V11H123V37H118.367L106.376 20.4716V37H101V11Z" fill="white"/>
<path d="M140.917 11H146.083L157 37H151.142L148.813 31.2102H138.042L135.714 37H130L140.917 11ZM146.811 26.194L143.427 17.8226L140.044 26.194H146.811Z" fill="white"/>
<path d="M163 11H168.251L180.379 27.0087V11H186V37H181.156L168.621 20.4716V37H163V11Z" fill="white"/>
<path d="M205.894 38C203.906 38 202.062 37.6516 200.359 36.956C198.656 36.2604 197.186 35.309 195.947 34.1029C194.709 32.8972 193.741 31.4738 193.045 29.833C192.348 28.1918 192 26.439 192 24.5743V24.5C192 22.6352 192.348 20.8891 193.045 19.2603C193.741 17.632 194.709 16.2023 195.947 14.9717C197.185 13.7411 198.669 12.771 200.397 12.0626C202.125 11.3542 204.036 11 206.126 11C207.389 11 208.543 11.0999 209.588 11.2982C210.633 11.4977 211.581 11.7706 212.433 12.1186C213.285 12.467 214.071 12.8896 214.795 13.3865C215.516 13.8842 216.187 14.4309 216.806 15.0277L213.014 19.2417C211.955 18.3221 210.879 17.6005 209.782 17.0787C208.685 16.5569 207.454 16.2956 206.086 16.2956C204.951 16.2956 203.9 16.5072 202.933 16.9298C201.965 17.3524 201.133 17.9364 200.436 18.6822C199.74 19.4279 199.198 20.2923 198.81 21.274C198.424 22.2565 198.231 23.3067 198.231 24.4253V24.4996C198.231 25.6182 198.424 26.6754 198.81 27.6692C199.198 28.6642 199.732 29.534 200.417 30.2797C201.1 31.0255 201.926 31.6165 202.893 32.0515C203.862 32.487 204.926 32.704 206.086 32.704C207.635 32.704 208.943 32.4306 210.014 31.8836C211.085 31.3373 212.15 30.5912 213.207 29.6459L217 33.3381C216.303 34.0594 215.58 34.706 214.833 35.2771C214.084 35.8495 213.265 36.3402 212.375 36.7507C211.485 37.1606 210.51 37.472 209.454 37.6827C208.395 37.8939 207.209 38 205.894 38Z" fill="white"/>
<path d="M222 11H242.802V16.0888H228V21.3631H241.026V26.4515H228V31.9116H243V37H222V11Z" fill="white"/>
</svg>
