<svg width="92" height="88" viewBox="0 0 92 88" fill="none" xmlns="http://www.w3.org/2000/svg">
<path d="M45.9998 0C20.6356 0 0 17.2046 0 38.352C0 59.007 17.9127 75.4608 41.6668 76.6245C43.2777 76.6981 44.6475 75.46 44.7265 73.8473C44.8052 72.2346 43.5635 70.8632 41.9522 70.7841C21.3653 69.7756 5.8407 55.833 5.8407 38.352C5.8407 20.4289 23.8562 5.84702 45.9998 5.84702C68.1435 5.84702 86.1589 20.4285 86.1589 38.352C86.1589 55.0315 64.8879 73.1359 43.8761 82.4001C42.4 83.0511 41.7303 84.7765 42.3805 86.254C42.8618 87.3486 43.9322 88 45.0548 88C45.4481 88 45.8476 87.9201 46.2303 87.7513C57.4974 82.7837 68.6064 75.4499 76.7098 67.63C86.7126 57.9763 92 47.8525 92 38.352C91.9992 17.2046 71.364 0 45.9998 0Z" fill="white" fill-opacity="0.7"/>
<path d="M23.804 28.8994C23.397 28.3126 22.8322 28 22.1741 28C21.5163 28 20.955 28.3185 20.5504 28.9211C20.1796 29.4779 20 30.2401 20 31.2533V46.7175C20 47.801 20.1926 48.5909 20.5894 49.1322C21.0108 49.708 21.6634 50 22.5288 50H29.8033C30.4929 50 31.0378 49.7649 31.423 49.3006C31.804 48.8525 32 48.2629 32 47.5556C32 46.8712 31.7992 46.2662 31.4192 45.8063C31.0364 45.3281 30.4905 45.0812 29.803 45.0812H24.3773V31.2529C24.3773 30.2184 24.1895 29.4486 23.804 28.8994Z" fill="white" fill-opacity="0.7"/>
<path d="M36.4821 28C35.7392 28 35.1014 28.3124 34.6371 28.9042C34.2146 29.4434 34 30.2169 34 31.2032V46.7817C34 47.787 34.2134 48.5433 34.6519 49.0931C35.1127 49.6845 35.7474 50 36.4817 50C37.2315 50 37.8764 49.6891 38.3457 49.1005C38.7804 48.5507 39 47.7711 39 46.7813V31.2028C39 30.2064 38.7788 29.4275 38.3426 28.8875C37.8702 28.3062 37.2272 28 36.4821 28Z" fill="white" fill-opacity="0.7"/>
<path d="M46.547 38.337L51.289 47.2427C51.2927 47.2497 51.2964 47.2563 51.3001 47.2633C51.4119 47.459 51.5241 47.6528 51.6351 47.8442L51.8346 48.1889C52.0582 48.5675 52.2784 48.8694 52.5121 49.1195C52.7884 49.4183 53.0822 49.6358 53.4076 49.7825C53.7545 49.9307 54.1062 50 54.4959 50C55.4311 50 57 49.5607 57 46.6175V31.0705C57 30.1247 56.8206 29.41 56.4507 28.8859C56.038 28.3054 55.4467 28 54.7391 28C54.049 28 53.4674 28.3058 53.0566 28.884C52.6863 29.4189 52.5087 30.1317 52.5087 31.0709V39.8711L47.6104 30.795L47.3585 30.3107L47.1034 29.8197C46.8958 29.4353 46.7108 29.147 46.5314 28.926C46.3182 28.6525 46.0597 28.4299 45.7629 28.2646C45.4535 28.0879 45.0903 28 44.6601 28C44.1167 28 43.6124 28.1825 43.1618 28.5427C42.7269 28.8832 42.4078 29.3357 42.2188 29.8827C42.2165 29.8897 42.2143 29.8963 42.2121 29.9033C42.0695 30.355 42 30.9347 42 31.6755V46.9318C42 47.8345 42.1865 48.5616 42.5538 49.0935C42.5575 49.0989 42.5612 49.104 42.5649 49.109C42.9898 49.6923 43.58 50 44.2724 50C44.9539 50 45.5386 49.6954 45.9627 49.1188C46.3505 48.5893 46.5466 47.8539 46.5466 46.9315V38.337H46.547Z" fill="white" fill-opacity="0.7"/>
<path d="M72.2572 32.7874C73.0401 32.7874 73.6558 32.5578 74.0864 32.1051C74.5046 31.6636 74.7161 31.0864 74.7161 30.3889C74.7161 29.6961 74.5034 29.123 74.0844 28.6851C73.661 28.2328 73.0445 28 72.2572 28H62.9567C62.3345 28 61.796 28.118 61.3554 28.3512C60.8672 28.6157 60.509 29.0279 60.2839 29.5797C60.0928 30.0461 60 30.6213 60 31.3369V46.6659C60 47.7677 60.2279 48.5708 60.6969 49.1214C61.1827 49.7026 61.9447 50 62.9571 50H72.5291C73.3128 50 73.9313 49.7628 74.3687 49.2948C74.7889 48.8389 75 48.2613 75 47.5738C75 46.8638 74.7889 46.2746 74.3731 45.8227C73.9245 45.3491 73.3068 45.1135 72.5295 45.1135H65.1233V40.9125H71.6251C72.4096 40.9125 73.0173 40.6773 73.4323 40.2129C73.8277 39.767 74.0272 39.2059 74.0272 38.5425C74.0272 37.8658 73.8201 37.3039 73.4123 36.8716C73.0073 36.4265 72.4028 36.1953 71.6255 36.1953H65.1237V32.7866H72.2572V32.7874Z" fill="white" fill-opacity="0.7"/>
</svg>
