<svg width="224" height="63" viewBox="0 0 224 63" fill="none" xmlns="http://www.w3.org/2000/svg">
<path opacity="0.7" d="M74.6484 33.8828H76.6406C78.5026 33.8828 79.8958 33.5182 80.8203 32.7891C81.7448 32.0469 82.207 30.9727 82.207 29.5664C82.207 28.1471 81.8164 27.099 81.0352 26.4219C80.2669 25.7448 79.056 25.4062 77.4023 25.4062H74.6484V33.8828ZM88.3203 29.3516C88.3203 32.4245 87.3568 34.7747 85.4297 36.4023C83.5156 38.0299 80.7878 38.8438 77.2461 38.8438H74.6484V49H68.5938V20.4453H77.7148C81.1784 20.4453 83.8086 21.194 85.6055 22.6914C87.4154 24.1758 88.3203 26.3958 88.3203 29.3516ZM107.109 49L105.957 46.0312H105.801C104.798 47.2943 103.763 48.1732 102.695 48.668C101.641 49.1497 100.26 49.3906 98.5547 49.3906C96.4583 49.3906 94.8047 48.7917 93.5938 47.5938C92.3958 46.3958 91.7969 44.6901 91.7969 42.4766C91.7969 40.1589 92.6042 38.4531 94.2188 37.3594C95.8464 36.2526 98.2943 35.6406 101.562 35.5234L105.352 35.4062V34.4492C105.352 32.2357 104.219 31.1289 101.953 31.1289C100.208 31.1289 98.1576 31.6562 95.8008 32.7109L93.8281 28.6875C96.3411 27.3724 99.1276 26.7148 102.188 26.7148C105.117 26.7148 107.363 27.3529 108.926 28.6289C110.488 29.9049 111.27 31.8451 111.27 34.4492V49H107.109ZM105.352 38.8828L103.047 38.9609C101.315 39.013 100.026 39.3255 99.1797 39.8984C98.3333 40.4714 97.9102 41.3438 97.9102 42.5156C97.9102 44.1953 98.8737 45.0352 100.801 45.0352C102.181 45.0352 103.281 44.638 104.102 43.8438C104.935 43.0495 105.352 41.9948 105.352 40.6797V38.8828ZM114.297 27.1641H120.82L124.941 39.4492C125.293 40.5169 125.534 41.7799 125.664 43.2383H125.781C125.924 41.8971 126.204 40.6341 126.621 39.4492L130.664 27.1641H137.051L127.812 51.793C126.966 54.0716 125.755 55.7773 124.18 56.9102C122.617 58.043 120.788 58.6094 118.691 58.6094C117.663 58.6094 116.654 58.4987 115.664 58.2773V53.5508C116.38 53.7201 117.161 53.8047 118.008 53.8047C119.062 53.8047 119.98 53.4792 120.762 52.8281C121.556 52.1901 122.174 51.2201 122.617 49.918L122.969 48.8438L114.297 27.1641ZM146.719 33.8828H148.711C150.573 33.8828 151.966 33.5182 152.891 32.7891C153.815 32.0469 154.277 30.9727 154.277 29.5664C154.277 28.1471 153.887 27.099 153.105 26.4219C152.337 25.7448 151.126 25.4062 149.473 25.4062H146.719V33.8828ZM160.391 29.3516C160.391 32.4245 159.427 34.7747 157.5 36.4023C155.586 38.0299 152.858 38.8438 149.316 38.8438H146.719V49H140.664V20.4453H149.785C153.249 20.4453 155.879 21.194 157.676 22.6914C159.486 24.1758 160.391 26.3958 160.391 29.3516ZM179.18 49L178.027 46.0312H177.871C176.868 47.2943 175.833 48.1732 174.766 48.668C173.711 49.1497 172.331 49.3906 170.625 49.3906C168.529 49.3906 166.875 48.7917 165.664 47.5938C164.466 46.3958 163.867 44.6901 163.867 42.4766C163.867 40.1589 164.674 38.4531 166.289 37.3594C167.917 36.2526 170.365 35.6406 173.633 35.5234L177.422 35.4062V34.4492C177.422 32.2357 176.289 31.1289 174.023 31.1289C172.279 31.1289 170.228 31.6562 167.871 32.7109L165.898 28.6875C168.411 27.3724 171.198 26.7148 174.258 26.7148C177.188 26.7148 179.434 27.3529 180.996 28.6289C182.559 29.9049 183.34 31.8451 183.34 34.4492V49H179.18ZM177.422 38.8828L175.117 38.9609C173.385 39.013 172.096 39.3255 171.25 39.8984C170.404 40.4714 169.98 41.3438 169.98 42.5156C169.98 44.1953 170.944 45.0352 172.871 45.0352C174.251 45.0352 175.352 44.638 176.172 43.8438C177.005 43.0495 177.422 41.9948 177.422 40.6797V38.8828ZM195.449 49H189.492V18.6094H195.449V49Z" fill="white"/>
<g opacity="0.7">
<path d="M54.4896 23V23.2021C54.4896 29.6545 51.3886 33.38 48.7874 35.3691C45.9151 37.5657 42.0996 38.8252 38.3193 38.8252H31.6418C31.5381 38.8252 31.3077 38.8252 31.1436 38.8426C31.1214 38.9138 31.0958 39.0188 31.0747 39.1658C31.0691 39.207 31.0621 39.248 31.0547 39.2889L28.9202 50.5924C28.5394 52.6082 26.7169 54.0713 24.5861 54.0713H24.1787L24.0312 54.997C23.9116 55.7508 24.139 56.5141 24.6558 57.0921C25.1714 57.6694 25.9212 58 26.7121 58H31.8834C33.1954 58 34.3175 57.0989 34.5516 55.8579L36.4271 45.9256C36.4308 45.906 36.4342 45.8861 36.4368 45.8662C36.6075 44.66 37.1187 44.6038 38.083 44.6038H43.9499C47.0145 44.6038 50.104 43.5852 52.4266 41.8093C54.5129 40.2142 57 37.2155 57 31.9895V29.0018C57.0004 26.6155 56.0732 24.536 54.4896 23Z" fill="white"/>
<path d="M26.4641 50.8045L28.5161 39.1894C28.8868 36.3889 30.8052 36.3337 31.8554 36.3337H38.2748C43.461 36.3337 51 32.9297 51 23.1761V19.6825C51 14.3443 46.7568 11 41.5707 11H31.8554C24.4143 11.0936 23.8488 10.9477 22.4261 20.7054L18.0167 50.3236C17.8853 51.2053 18.548 52 19.4148 52H25.0724C25.7562 52 26.342 51.4968 26.4641 50.8045Z" fill="white"/>
</g>
</svg>
