<svg width="226" height="35" viewBox="0 0 226 35" fill="none" xmlns="http://www.w3.org/2000/svg">
<path d="M216.035 14L225 1H215.213L211 6.92293L216.035 14Z" fill="white"/>
<path d="M216.187 21L211 27.6813L215.905 34H226L216.187 21Z" fill="white"/>
<path d="M18.1881 1C21.5688 1 24.0494 1.80577 25.6296 3.41732C27.2101 5.02956 28 8.47401 28 11.6851C28 14.9378 27.176 18.8377 25.5301 20.4429C23.8843 22.0481 21.436 22.8482 18.1881 22.8482H7.80529V34H0V1H18.1881ZM7.80529 6.61079V17.279H15.6744C16.5568 17.279 17.2846 17.2024 17.8577 17.0492C18.4308 16.896 18.8864 16.6586 19.2244 16.3372C19.5625 16.0166 19.7975 15.5979 19.9297 15.0809C20.0618 14.5649 20.1279 11.4454 20.1279 10.7334C20.1369 10.1118 20.0779 9.49088 19.952 8.88077C19.8563 8.39903 19.6196 7.95265 19.269 7.59281C18.93 7.25771 18.463 7.01004 17.8681 6.84978C17.2732 6.68952 16.4905 6.60939 15.52 6.60939H7.80529V6.61079Z" fill="white"/>
<path d="M31 11.6798C31 9.59565 31.2455 7.81555 31.7364 6.33952C32.2273 4.86349 32.9894 3.65499 34.0225 2.71401C35.0543 1.77353 36.3715 1.08595 37.9742 0.651278C39.5769 0.216608 41.4946 -0.00048648 43.7273 8.18522e-07H47.3129C49.5629 8.18522e-07 51.4887 0.213683 53.0905 0.641044C54.6923 1.06841 56.0059 1.74867 57.0314 2.68185C58.0564 3.61503 58.8077 4.82353 59.2852 6.30736C59.7627 7.79118 60.001 9.58225 60 11.6806V22.3743C60 24.459 59.7577 27.1854 59.2737 28.6605C58.7897 30.1355 58.0353 31.3453 57.0098 32.286C55.9843 33.2267 54.6705 33.9145 53.0689 34.3487C51.4674 34.7829 49.5452 35 47.3158 35H43.7302C41.4942 35 39.5764 34.7829 37.9771 34.3487C36.3777 33.9145 35.0605 33.227 34.0254 32.286C32.9923 31.345 32.2302 30.1365 31.7393 28.6605C31.2481 27.184 31.0029 24.4575 31.0029 22.3743V11.6798H31ZM45.2591 6.5778C44.0644 6.5778 43.0547 6.66113 42.2301 6.82779C41.4055 6.99445 40.7302 7.3129 40.2043 7.78314C39.6769 8.25338 39.2967 8.91538 39.0637 9.76913C38.8285 10.6229 38.7113 12.6841 38.7113 14.0598V20.9848C38.7113 22.3604 38.8285 24.4203 39.0637 25.2645C39.2989 26.1087 39.6786 26.7732 40.2043 27.2498C40.7299 27.7263 41.4059 28.0538 42.2301 28.2161C43.0542 28.3783 44.0639 28.4653 45.2591 28.4653H45.7452C46.9395 28.4653 47.9489 28.3822 48.7735 28.2161C49.5981 28.0499 50.2736 27.7317 50.8001 27.2614C51.3274 26.7907 51.7078 26.1285 51.9413 25.2747C52.1758 24.4217 52.293 22.3604 52.293 20.9848V14.0159C52.293 12.6403 52.1758 10.5805 51.9413 9.73697C51.7069 8.89345 51.3293 8.23121 50.8108 7.7634C50.2923 7.2956 49.6164 6.9791 48.785 6.81902C47.9537 6.65894 46.9397 6.58 45.7459 6.58H45.2598L45.2591 6.5778Z" fill="white"/>
<path d="M70.7498 27.6559H84V34H63V1H70.7498V27.6559Z" fill="white"/>
<path d="M86 11.6798C86 9.59565 86.2454 7.81555 86.7363 6.33952C87.2271 4.86349 87.9888 3.65499 89.0214 2.71401C90.0539 1.77353 91.3721 1.08595 92.976 0.651278C94.58 0.216608 96.4974 -0.00048648 98.7283 8.18522e-07H102.313C104.563 8.18522e-07 106.488 0.213683 108.09 0.641044C109.692 1.06841 111.006 1.74867 112.03 2.68185C113.056 3.61503 113.807 4.82353 114.285 6.30736C114.762 7.79118 115 9.58225 115 11.6806V22.3743C115 24.459 114.757 27.1854 114.273 28.6605C113.789 30.1355 113.035 31.3453 112.01 32.286C110.984 33.2267 109.671 33.9145 108.069 34.3487C106.467 34.7829 104.545 35 102.316 35H98.7283C96.4926 35 94.5752 34.7829 92.976 34.3487C91.3769 33.9145 90.0587 33.227 89.0214 32.286C87.9893 31.345 87.2276 30.1365 86.7363 28.6605C86.2452 27.184 86 24.4575 86 22.3743V11.6798ZM100.256 6.5778C99.0617 6.5778 98.0522 6.66113 97.2277 6.82779C96.4032 6.99445 95.728 7.3129 95.2022 7.78314C94.6749 8.25338 94.2945 8.91538 94.0611 9.76913C93.8267 10.6229 93.7095 12.6841 93.7095 14.0598V20.9848C93.7095 22.3604 93.8267 24.4203 94.0611 25.2645C94.2955 26.1087 94.6758 26.7732 95.2022 27.2498C95.7285 27.7263 96.4037 28.0538 97.2277 28.2161C98.0517 28.3783 99.0619 28.4653 100.256 28.4653H100.742C101.936 28.4653 102.946 28.3822 103.771 28.2161C104.596 28.0499 105.271 27.7317 105.796 27.2614C106.324 26.7907 106.704 26.1285 106.937 25.2747C107.172 24.4217 107.289 22.3604 107.289 20.9848V14.0159C107.289 12.6403 107.172 10.5805 106.937 9.73697C106.702 8.89345 106.326 8.23121 105.806 7.7634C105.287 7.2956 104.613 6.97617 103.783 6.81756C102.953 6.65894 101.939 6.57854 100.744 6.57854H100.258L100.256 6.5778Z" fill="white"/>
<path d="M119 1H127.884L140.754 23.5292V1H148V34H139.117L126.247 11.2157V33.9972H119V1Z" fill="white"/>
<path d="M153 1H161V34H153V1Z" fill="white"/>
<path d="M165 1H189V7.34412H172.8V14.0985H188.469V20.4003H172.8V27.6559H189V34H165V1Z" fill="white"/>
<path d="M213.997 17.5L201.295 34H191L203.31 17.531L191.56 1H201.902L214 17.5" fill="white"/>
</svg>
