<svg width="58" height="58" viewBox="0 0 58 58" fill="none" xmlns="http://www.w3.org/2000/svg">
<path d="M8.7 34.7998C2.79895 34.7998 0.416309 36.8936 0.318094 36.9828C0.115321 37.166 -0.00022623 37.4266 3.32555e-07 37.6998V55.0998C-0.00022623 55.373 0.115321 55.6336 0.318094 55.8168C0.416309 55.906 2.79895 57.9998 8.7 57.9998C14.601 57.9998 16.9837 55.906 17.0819 55.8168C17.2847 55.6336 17.4002 55.373 17.4 55.0998V37.6998C17.4002 37.4266 17.2847 37.166 17.0819 36.9828C16.9837 36.8936 14.601 34.7998 8.7 34.7998ZM3.33942 37.5443L3.37352 37.5312C3.57595 37.4591 3.80353 37.3882 4.04425 37.319C4.10747 37.3008 4.17487 37.2834 4.24068 37.2656C4.44436 37.2108 4.66243 37.1584 4.89239 37.1088C4.95866 37.0944 5.02142 37.0794 5.08995 37.0657C5.38324 37.0069 5.69714 36.9541 6.03177 36.9075C6.09997 36.8981 6.17451 36.8912 6.24463 36.8825C6.52545 36.8475 6.82168 36.8185 7.13128 36.7953C7.23709 36.7873 7.34278 36.7794 7.45198 36.773C7.84779 36.7498 8.25854 36.7333 8.70011 36.7333C9.14236 36.7333 9.55357 36.7498 9.94983 36.773C10.0596 36.7795 10.1661 36.7874 10.2725 36.7955C10.5817 36.8188 10.8776 36.8478 11.1581 36.8828C11.2287 36.8917 11.304 36.8987 11.3728 36.9081C11.7071 36.9541 12.02 37.0075 12.3128 37.0662C12.3837 37.0804 12.4485 37.096 12.5169 37.1109C12.7447 37.1601 12.9608 37.212 13.1628 37.2665C13.2294 37.2844 13.2977 37.3022 13.3616 37.3205C13.6011 37.3894 13.8272 37.4601 14.0288 37.5319C14.0473 37.5386 14.0624 37.5452 14.0807 37.5519C14.2199 37.6024 14.3394 37.6522 14.4604 37.7023C12.6212 38.3952 10.6648 38.7228 8.70023 38.6669C6.73582 38.7227 4.77934 38.3953 2.94022 37.7029C3.06709 37.65 3.19238 37.5973 3.33942 37.5443ZM1.93337 39.3719C4.07813 40.2501 6.3834 40.6683 8.7 40.5998C11.0166 40.6683 13.3219 40.2501 15.4666 39.3719V42.999L15.4398 43.0156C15.3553 43.0668 15.2564 43.1237 15.1395 43.1856C15.1206 43.1955 15.0974 43.2065 15.0777 43.2167C14.9703 43.2721 14.8474 43.3308 14.7139 43.3911C14.6782 43.4071 14.6441 43.423 14.6065 43.4392C14.4469 43.5083 14.2698 43.5791 14.0751 43.6497C14.0355 43.6641 13.9915 43.6782 13.9504 43.6926C13.7714 43.7549 13.5773 43.8164 13.3697 43.8764C13.3241 43.8895 13.2817 43.903 13.2346 43.9159C12.9929 43.9825 12.7295 44.0457 12.4497 44.1048C12.3861 44.1183 12.3188 44.1308 12.2532 44.1437C11.9844 44.1966 11.7004 44.2452 11.3972 44.2874C11.3578 44.2929 11.3219 44.2997 11.2819 44.3049C10.9486 44.3488 10.589 44.3829 10.214 44.41C10.1258 44.4164 10.0352 44.4217 9.94451 44.4269C9.54972 44.45 9.14033 44.4664 8.7 44.4664C8.25968 44.4664 7.85028 44.4499 7.45549 44.4268C7.36475 44.4215 7.27436 44.4162 7.186 44.4099C6.8107 44.3827 6.45069 44.3486 6.11719 44.3047C6.07879 44.2996 6.04435 44.2931 6.0064 44.2879C5.7002 44.2454 5.41349 44.1963 5.14229 44.1428C5.07953 44.1304 5.01508 44.1184 4.95413 44.1056C4.67093 44.0458 4.40426 43.982 4.15991 43.9145C4.1197 43.9034 4.08322 43.8918 4.04403 43.8805C3.82426 43.8174 3.61945 43.7525 3.43163 43.6867C3.40002 43.6756 3.36604 43.6647 3.33534 43.6536C3.13098 43.5798 2.94543 43.5057 2.77936 43.4335L2.71218 43.4034C2.55143 43.3317 2.40417 43.2615 2.28013 43.1964L2.27729 43.195C2.14373 43.125 2.03215 43.0606 1.93972 43.004L1.93326 43V39.3719H1.93337ZM15.4666 54.6005C14.717 55.0606 12.6289 56.0665 8.7 56.0665C4.76348 56.0665 2.67536 55.057 1.93337 54.6015V50.9736C1.97268 50.9911 2.02015 51.0088 2.06093 51.0263C2.17262 51.0742 2.28602 51.122 2.40938 51.1701C2.47678 51.1964 2.54974 51.222 2.62065 51.2481C2.74016 51.2921 2.86171 51.3355 2.99142 51.3786C3.07457 51.4062 3.16168 51.4329 3.24902 51.4599C3.37952 51.5003 3.51331 51.5396 3.65355 51.5783C3.75074 51.6052 3.85054 51.6311 3.95238 51.657C4.09625 51.6934 4.2451 51.7282 4.39849 51.7622C4.50848 51.7866 4.61893 51.8103 4.7338 51.8332C4.89432 51.8652 5.06163 51.8945 5.2319 51.9232C5.35243 51.9434 5.47126 51.964 5.59666 51.9824C5.7795 52.0093 5.97162 52.032 6.16511 52.0546C6.29119 52.0693 6.41342 52.0853 6.54392 52.098C6.76368 52.1193 6.99557 52.1343 7.22848 52.1492C7.34572 52.1566 7.45696 52.167 7.5775 52.1727C7.93716 52.1898 8.30975 52.2001 8.69989 52.2001C9.09003 52.2001 9.46261 52.1898 9.82239 52.1727C9.94304 52.167 10.0542 52.1566 10.1714 52.1492C10.4043 52.1343 10.6363 52.1191 10.856 52.098C10.9866 52.0853 11.1088 52.0693 11.2348 52.0546C11.4282 52.032 11.6204 52.0094 11.8032 51.9824C11.9286 51.964 12.0475 51.9434 12.168 51.9232C12.3383 51.8945 12.5056 51.8653 12.6661 51.8332C12.7811 51.8103 12.8915 51.7866 13.0014 51.7622C13.1548 51.7282 13.3036 51.6934 13.4475 51.657C13.5495 51.6311 13.6491 51.6052 13.7463 51.5783C13.8865 51.5397 14.0204 51.5003 14.1509 51.4599C14.2382 51.4328 14.3254 51.4062 14.4085 51.3786C14.5382 51.3356 14.6597 51.2921 14.7792 51.2481C14.8503 51.2221 14.9231 51.1964 14.9905 51.1701C15.1139 51.122 15.2273 51.0744 15.339 51.0263C15.3797 51.0088 15.4272 50.9912 15.4665 50.9736L15.4666 54.6005ZM15.4667 48.7991L15.4399 48.8158C15.3554 48.867 15.2565 48.9238 15.1396 48.9857C15.1207 48.9956 15.0976 49.0066 15.0778 49.0168C14.9705 49.0722 14.8475 49.1309 14.714 49.1912C14.6783 49.2073 14.6442 49.2231 14.6066 49.2393C14.447 49.3084 14.2699 49.3792 14.0752 49.4498C14.0357 49.4642 13.9916 49.4783 13.9505 49.4927C13.7715 49.555 13.5774 49.6165 13.3698 49.6765C13.3243 49.6896 13.2818 49.7031 13.2348 49.716C12.993 49.7826 12.7296 49.8458 12.4498 49.905C12.3862 49.9184 12.3189 49.9309 12.2533 49.9438C11.9845 49.9967 11.7005 50.0453 11.3973 50.0876C11.3579 50.093 11.322 50.0998 11.282 50.105C10.9487 50.149 10.5891 50.1831 10.2141 50.2101C10.1259 50.2165 10.0354 50.2218 9.94462 50.227C9.54972 50.25 9.14033 50.2665 8.7 50.2665C8.25922 50.2665 7.84948 50.25 7.45436 50.2269C7.36306 50.2216 7.27175 50.2162 7.18294 50.2099C6.80832 50.1827 6.4491 50.1486 6.11617 50.1047C6.07369 50.099 6.03529 50.092 5.99349 50.0861C5.69204 50.0439 5.40907 49.9955 5.14161 49.9428C5.0767 49.93 5.00986 49.9178 4.94699 49.9044C4.66685 49.8451 4.40336 49.7819 4.16139 49.7151C4.1137 49.7018 4.07031 49.6882 4.02409 49.6748C3.81611 49.6146 3.6216 49.553 3.44262 49.4906C3.4032 49.4769 3.36072 49.4632 3.32265 49.4493C3.12702 49.3784 2.94939 49.3074 2.78932 49.238C2.75307 49.2222 2.71977 49.2068 2.68522 49.1914C2.54747 49.1294 2.42059 49.0688 2.31082 49.012L2.26268 48.9877C2.1434 48.9247 2.04348 48.8672 1.95818 48.8154L1.93337 48.8V45.1735C1.97268 45.191 2.02015 45.2086 2.06093 45.2262C2.17262 45.2741 2.28602 45.3219 2.40927 45.37C2.47667 45.3962 2.54962 45.4218 2.62054 45.448C2.74005 45.492 2.8616 45.5354 2.99131 45.5785C3.07445 45.606 3.16157 45.6328 3.24891 45.6597C3.37941 45.7002 3.51319 45.7395 3.65343 45.7782C3.75063 45.8051 3.85043 45.831 3.95227 45.8568C4.09614 45.8933 4.24499 45.9281 4.39837 45.9621C4.50837 45.9864 4.61882 46.0102 4.73368 46.0331C4.8942 46.0651 5.06152 46.0944 5.23178 46.1231C5.35231 46.1433 5.47115 46.1638 5.59655 46.1823C5.77938 46.2092 5.97151 46.2319 6.16499 46.2545C6.29108 46.2692 6.41331 46.2852 6.54381 46.2979C6.76357 46.3191 6.99557 46.3342 7.22836 46.3491C7.34561 46.3565 7.45685 46.3668 7.57738 46.3726C7.93705 46.3897 8.30963 46.4 8.69977 46.4C9.08991 46.4 9.4625 46.3897 9.82228 46.3726C9.94292 46.3668 10.0541 46.3565 10.1713 46.3491C10.4042 46.3342 10.6362 46.319 10.8559 46.2979C10.9865 46.2852 11.1087 46.2692 11.2347 46.2545C11.428 46.2319 11.6203 46.2093 11.8031 46.1823C11.9285 46.1638 12.0473 46.1433 12.1679 46.1231C12.3381 46.0944 12.5055 46.0651 12.666 46.0331C12.781 46.0102 12.8914 45.9864 13.0013 45.9621C13.1547 45.9281 13.3035 45.8933 13.4474 45.8568C13.5493 45.831 13.649 45.8051 13.7462 45.7782C13.8864 45.7396 14.0203 45.7002 14.1508 45.6597C14.2381 45.6327 14.3253 45.606 14.4084 45.5785C14.5381 45.5355 14.6596 45.492 14.7791 45.448C14.8502 45.422 14.923 45.3962 14.9904 45.37C15.1138 45.3219 15.2272 45.2742 15.3388 45.2262C15.3796 45.2086 15.4271 45.1911 15.4664 45.1735V48.7991H15.4667Z" fill="black"/>
<path d="M57.6819 13.7827C57.5837 13.6934 55.201 11.5996 49.3 11.5996C43.3989 11.5996 41.0163 13.6934 40.9181 13.7827C40.7153 13.9658 40.5997 14.2264 40.6 14.4996V55.0996C40.5997 55.3728 40.7153 55.6334 40.9181 55.8166C41.0163 55.9058 43.3989 57.9996 49.3 57.9996C55.201 57.9996 57.5837 55.9058 57.6819 55.8166C57.8847 55.6334 58.0002 55.3728 58 55.0996V14.4996C58.0002 14.2264 57.8847 13.9658 57.6819 13.7827ZM43.9394 14.3441L43.9735 14.331C44.1759 14.2589 44.4035 14.1879 44.6442 14.1188C44.7074 14.1006 44.7748 14.0832 44.8407 14.0654C45.0443 14.0106 45.2624 13.9582 45.4924 13.9086C45.5586 13.8942 45.6214 13.8792 45.6899 13.8655C45.9832 13.8067 46.2971 13.7539 46.6318 13.7073C46.6999 13.6979 46.7745 13.691 46.8446 13.6823C47.1254 13.6473 47.4217 13.6183 47.7313 13.5951C47.8371 13.5871 47.9428 13.5792 48.052 13.5729C48.4478 13.5496 48.8585 13.5331 49.3001 13.5331C49.7423 13.5331 50.1536 13.5496 50.5498 13.5729C50.6596 13.5793 50.7661 13.5872 50.8724 13.5953C51.1817 13.6186 51.4776 13.6476 51.7581 13.6826C51.8286 13.6915 51.904 13.6985 51.9726 13.7079C52.3069 13.7539 52.6199 13.8073 52.9126 13.866C52.9835 13.8803 53.0483 13.8958 53.1168 13.9107C53.3446 13.9599 53.5607 14.0118 53.7627 14.0663C53.8293 14.0842 53.8976 14.102 53.9615 14.1203C54.201 14.1892 54.4271 14.2599 54.6286 14.3317C54.6472 14.3384 54.6623 14.345 54.6806 14.3517C54.8197 14.4022 54.9392 14.452 55.0602 14.5021C53.2212 15.195 51.2646 15.5227 49.3001 15.4667C47.3357 15.5225 45.3792 15.1952 43.5401 14.5027C43.6671 14.4498 43.7924 14.3971 43.9394 14.3441ZM42.5333 16.1718C44.6782 17.0498 46.9834 17.4681 49.3 17.3996C51.6166 17.4681 53.9219 17.0499 56.0666 16.1718V19.7988L56.0398 19.8154C55.9553 19.8666 55.8564 19.9235 55.7395 19.9854C55.7205 19.9953 55.6974 20.0063 55.6777 20.0165C55.5703 20.0719 55.4474 20.1306 55.3139 20.1909C55.2782 20.2069 55.2441 20.2228 55.2065 20.239C55.0468 20.3081 54.8698 20.3789 54.6751 20.4495C54.6354 20.4639 54.5915 20.478 54.5503 20.4924C54.3714 20.5547 54.1773 20.6162 53.9697 20.6762C53.9241 20.6893 53.8816 20.7028 53.8346 20.7158C53.5929 20.7824 53.3295 20.8456 53.0497 20.9048C52.986 20.9182 52.9187 20.9307 52.8532 20.9436C52.5843 20.9965 52.3003 21.0451 51.9972 21.0874C51.9578 21.0928 51.9219 21.0996 51.8819 21.1048C51.5486 21.1488 51.1889 21.1829 50.814 21.2099C50.7257 21.2163 50.6352 21.2216 50.5445 21.2269C50.1497 21.2499 49.7403 21.2665 49.3 21.2665C48.8597 21.2665 48.4503 21.2499 48.0555 21.2269C47.9647 21.2216 47.8743 21.2164 47.786 21.2099C47.4107 21.1827 47.0507 21.1487 46.7172 21.1047C46.6788 21.0996 46.6443 21.0931 46.6064 21.0879C46.3002 21.0455 46.0135 20.9963 45.7423 20.9428C45.6795 20.9305 45.6151 20.9186 45.5541 20.9057C45.2709 20.8459 45.0042 20.7821 44.7599 20.7146C44.7197 20.7035 44.6832 20.6918 44.644 20.6806C44.4242 20.6175 44.2194 20.5526 44.0316 20.4868C44 20.4756 43.966 20.4648 43.9353 20.4537C43.731 20.3798 43.5454 20.3057 43.3793 20.2336L43.3122 20.2034C43.1514 20.1317 43.0041 20.0615 42.8801 19.9965L42.8773 19.995C42.7437 19.925 42.6321 19.8606 42.5397 19.804L42.5332 19.7999V16.1718H42.5333ZM42.5333 21.9733C42.5727 21.9908 42.6201 22.0085 42.6609 22.026C42.7726 22.0739 42.886 22.1217 43.0094 22.1698C43.0768 22.1961 43.1497 22.2217 43.2206 22.2478C43.3401 22.2918 43.4617 22.3352 43.5914 22.3783C43.6745 22.4058 43.7617 22.4326 43.849 22.4595C43.9795 22.5 44.1133 22.5393 44.2535 22.578C44.3507 22.6049 44.4505 22.6308 44.5524 22.6567C44.6962 22.6931 44.8451 22.7279 44.9985 22.7619C45.1085 22.7862 45.2189 22.81 45.3338 22.8329C45.4943 22.8649 45.6616 22.8942 45.8319 22.9229C45.9524 22.9431 46.0712 22.9636 46.1966 22.9821C46.3795 23.009 46.5716 23.0317 46.765 23.0542C46.8911 23.0689 47.0133 23.0849 47.1438 23.0975C47.3635 23.1188 47.5955 23.1339 47.8283 23.1487C47.9456 23.1562 48.0568 23.1665 48.1774 23.1723C48.537 23.1895 48.9096 23.1997 49.2999 23.1997C49.69 23.1997 50.0626 23.1894 50.4224 23.1723C50.543 23.1665 50.6541 23.1562 50.7714 23.1487C51.0043 23.1339 51.2363 23.1187 51.4559 23.0975C51.5866 23.0849 51.7088 23.0689 51.8348 23.0542C52.0281 23.0316 52.2204 23.009 52.4031 22.9821C52.5285 22.9636 52.6473 22.9431 52.7679 22.9229C52.9381 22.8942 53.1054 22.865 53.266 22.8329C53.3809 22.81 53.4914 22.7862 53.6013 22.7619C53.7547 22.7279 53.9035 22.6931 54.0474 22.6567C54.1493 22.6308 54.249 22.6049 54.3463 22.578C54.4864 22.5394 54.6203 22.5 54.7508 22.4595C54.8382 22.4325 54.9254 22.4058 55.0084 22.3783C55.1382 22.3353 55.2597 22.2918 55.3792 22.2478C55.4502 22.2218 55.5231 22.1961 55.5905 22.1698C55.7139 22.1217 55.8272 22.074 55.9389 22.026C55.9797 22.0083 56.0272 21.9908 56.0665 21.9733V25.5988L56.0396 25.6154C55.9551 25.6666 55.8562 25.7235 55.7393 25.7854C55.7204 25.7953 55.6973 25.8063 55.6776 25.8165C55.5702 25.8719 55.4473 25.9306 55.3137 25.9909C55.2781 26.0069 55.244 26.0228 55.2063 26.039C55.0467 26.1081 54.8697 26.1789 54.6749 26.2495C54.6353 26.2639 54.5913 26.278 54.5502 26.2924C54.3712 26.3547 54.1772 26.4162 53.9695 26.4762C53.924 26.4893 53.8815 26.5028 53.8345 26.5158C53.5928 26.5824 53.3294 26.6456 53.0496 26.7048C52.9859 26.7182 52.9186 26.7307 52.853 26.7436C52.5842 26.7965 52.3002 26.8451 51.9971 26.8874C51.9577 26.8928 51.9218 26.8996 51.8818 26.9048C51.5485 26.9488 51.1888 26.9829 50.8139 27.0099C50.7256 27.0163 50.6351 27.0216 50.5444 27.0269C50.1496 27.0499 49.7402 27.0665 49.2999 27.0665C48.8591 27.0665 48.4493 27.0499 48.0542 27.0268C47.9629 27.0215 47.8716 27.0162 47.7828 27.0098C47.4082 26.9826 47.049 26.9485 46.716 26.9046C46.6736 26.8989 46.6351 26.8919 46.5932 26.886C46.2918 26.8439 46.0088 26.7954 45.7414 26.7427C45.6765 26.7299 45.6097 26.7177 45.5467 26.7043C45.2666 26.6451 45.0031 26.5818 44.7611 26.515C44.7134 26.5018 44.6701 26.4882 44.6237 26.4747C44.4157 26.4145 44.2212 26.3529 44.0423 26.2905C44.0028 26.2768 43.9604 26.2631 43.9223 26.2493C43.7267 26.1783 43.549 26.1073 43.389 26.0379C43.3527 26.0221 43.3194 26.0068 43.2849 25.9913C43.1471 25.9293 43.0202 25.8687 42.9105 25.8119L42.8623 25.7876C42.743 25.7246 42.6431 25.6671 42.5578 25.6153L42.533 25.5999V21.9733H42.5333ZM42.5333 27.7733C42.5727 27.7908 42.6201 27.8085 42.6609 27.826C42.7726 27.8739 42.886 27.9217 43.0094 27.9698C43.0768 27.9961 43.1497 28.0217 43.2206 28.0478C43.3401 28.0918 43.4617 28.1352 43.5914 28.1783C43.6745 28.2058 43.7617 28.2326 43.849 28.2595C43.9795 28.3 44.1133 28.3393 44.2535 28.378C44.3507 28.4049 44.4505 28.4308 44.5524 28.4567C44.6962 28.4931 44.8451 28.5279 44.9985 28.5619C45.1085 28.5862 45.2189 28.61 45.3338 28.6329C45.4943 28.6649 45.6616 28.6942 45.8319 28.7229C45.9524 28.7431 46.0712 28.7636 46.1966 28.7821C46.3795 28.809 46.5716 28.8317 46.765 28.8542C46.8911 28.8689 47.0133 28.8849 47.1438 28.8975C47.3635 28.9188 47.5955 28.9339 47.8283 28.9487C47.9456 28.9562 48.0568 28.9665 48.1774 28.9723C48.537 28.9895 48.9096 28.9997 49.2999 28.9997C49.69 28.9997 50.0626 28.9894 50.4224 28.9723C50.543 28.9665 50.6541 28.9562 50.7714 28.9487C51.0043 28.9339 51.2363 28.9187 51.4559 28.8975C51.5866 28.8849 51.7088 28.8689 51.8348 28.8542C52.0281 28.8316 52.2204 28.809 52.4031 28.7821C52.5285 28.7636 52.6473 28.7431 52.7679 28.7229C52.9381 28.6942 53.1054 28.665 53.266 28.6329C53.3809 28.61 53.4914 28.5862 53.6013 28.5619C53.7547 28.5279 53.9035 28.4931 54.0474 28.4567C54.1493 28.4308 54.249 28.4049 54.3463 28.378C54.4864 28.3394 54.6203 28.3 54.7508 28.2595C54.8382 28.2325 54.9254 28.2058 55.0084 28.1783C55.1382 28.1353 55.2597 28.0918 55.3792 28.0478C55.4502 28.0218 55.5231 27.9961 55.5905 27.9698C55.7139 27.9217 55.8272 27.874 55.9389 27.826C55.9797 27.8083 56.0272 27.7908 56.0665 27.7733V31.3988L56.0396 31.4154C55.9551 31.4666 55.8562 31.5235 55.7393 31.5854C55.7204 31.5953 55.6973 31.6063 55.6776 31.6165C55.5702 31.6719 55.4473 31.7306 55.3137 31.7909C55.2781 31.8069 55.244 31.8228 55.2063 31.839C55.0467 31.9081 54.8697 31.9789 54.6749 32.0495C54.6353 32.0639 54.5913 32.078 54.5502 32.0924C54.3712 32.1547 54.1772 32.2162 53.9695 32.2762C53.924 32.2893 53.8815 32.3028 53.8345 32.3157C53.5928 32.3823 53.3294 32.4455 53.0496 32.5046C52.9859 32.5181 52.9186 32.5306 52.853 32.5435C52.5842 32.5964 52.3002 32.645 51.9971 32.6873C51.9577 32.6927 51.9218 32.6995 51.8818 32.7047C51.5485 32.7487 51.1888 32.7828 50.8139 32.8098C50.7256 32.8162 50.6351 32.8215 50.5444 32.8267C50.1496 32.8498 49.7402 32.8662 49.2999 32.8662C48.8591 32.8662 48.4493 32.8497 48.0542 32.8266C47.9629 32.8213 47.8716 32.8159 47.7828 32.8095C47.4082 32.7823 47.049 32.7482 46.716 32.7042C46.6736 32.6986 46.6351 32.6916 46.5932 32.6857C46.2918 32.6435 46.0088 32.595 45.7414 32.5424C45.6765 32.5296 45.6097 32.5173 45.5467 32.504C45.2666 32.4447 45.0031 32.3815 44.7611 32.3147C44.7134 32.3014 44.6701 32.2878 44.6237 32.2743C44.4157 32.2142 44.2212 32.1526 44.0423 32.0902C44.0028 32.0764 43.9604 32.0627 43.9223 32.0489C43.7267 31.978 43.549 31.907 43.389 31.8375C43.3527 31.8218 43.3194 31.8064 43.2849 31.791C43.1471 31.729 43.0202 31.6684 42.9105 31.6115L42.8623 31.5873C42.743 31.5243 42.6431 31.4668 42.5578 31.415L42.533 31.3996V27.7733H42.5333ZM42.5333 33.5733C42.5727 33.5908 42.6201 33.6085 42.6609 33.626C42.7726 33.6739 42.886 33.7217 43.0094 33.7698C43.0768 33.7961 43.1497 33.8217 43.2206 33.8478C43.3401 33.8918 43.4617 33.9352 43.5914 33.9783C43.6745 34.0058 43.7617 34.0326 43.849 34.0595C43.9795 34.1 44.1133 34.1393 44.2535 34.178C44.3507 34.2049 44.4505 34.2308 44.5524 34.2567C44.6962 34.2931 44.8451 34.3279 44.9985 34.3619C45.1085 34.3862 45.2189 34.41 45.3338 34.4329C45.4943 34.4649 45.6616 34.4942 45.8319 34.5229C45.9524 34.5431 46.0712 34.5636 46.1966 34.5821C46.3795 34.6091 46.5716 34.6317 46.765 34.6543C46.8911 34.669 47.0133 34.685 47.1438 34.6977C47.3635 34.719 47.5955 34.734 47.8283 34.7489C47.9456 34.7563 48.0568 34.7666 48.1774 34.7724C48.537 34.7895 48.9096 34.7998 49.2999 34.7998C49.69 34.7998 50.0626 34.7895 50.4224 34.7724C50.543 34.7666 50.6541 34.7563 50.7714 34.7489C51.0043 34.734 51.2363 34.7188 51.4559 34.6977C51.5866 34.685 51.7088 34.669 51.8348 34.6543C52.0281 34.6317 52.2204 34.6091 52.4031 34.5821C52.5285 34.5636 52.6473 34.5431 52.7679 34.5229C52.9381 34.4942 53.1054 34.465 53.266 34.4329C53.3809 34.41 53.4914 34.3862 53.6013 34.3619C53.7547 34.3279 53.9035 34.2931 54.0474 34.2567C54.1493 34.2308 54.249 34.2049 54.3463 34.178C54.4864 34.1394 54.6203 34.1 54.7508 34.0595C54.8382 34.0325 54.9254 34.0058 55.0084 33.9783C55.1382 33.9353 55.2597 33.8918 55.3792 33.8478C55.4502 33.8218 55.5231 33.7961 55.5905 33.7698C55.7139 33.7217 55.8272 33.674 55.9389 33.626C55.9797 33.6085 56.0272 33.5908 56.0665 33.5733V37.1988L56.0396 37.2154C55.9551 37.2666 55.8562 37.3235 55.7393 37.3854C55.7204 37.3953 55.6973 37.4063 55.6776 37.4165C55.5702 37.4719 55.4473 37.5306 55.3137 37.5909C55.2781 37.6069 55.244 37.6228 55.2063 37.639C55.0467 37.7081 54.8697 37.7789 54.6749 37.8495C54.6353 37.8639 54.5913 37.878 54.5502 37.8924C54.3712 37.9548 54.1772 38.0162 53.9695 38.0762C53.924 38.0893 53.8815 38.1028 53.8345 38.1157C53.5928 38.1823 53.3294 38.2455 53.0496 38.3046C52.9859 38.3181 52.9186 38.3306 52.853 38.3435C52.5842 38.3964 52.3002 38.445 51.9971 38.4873C51.9577 38.4927 51.9218 38.4995 51.8818 38.5047C51.5485 38.5487 51.1888 38.5828 50.8139 38.6098C50.7256 38.6162 50.6351 38.6215 50.5444 38.6267C50.1496 38.6498 49.7402 38.6662 49.2999 38.6662C48.8591 38.6662 48.4493 38.6497 48.0542 38.6266C47.9629 38.6213 47.8716 38.6159 47.7828 38.6096C47.4082 38.5824 47.049 38.5483 46.716 38.5044C46.6736 38.4987 46.6351 38.4917 46.5932 38.4858C46.2918 38.4436 46.0088 38.3952 45.7414 38.3425C45.6765 38.3297 45.6097 38.3174 45.5467 38.3041C45.2666 38.2448 45.0031 38.1816 44.7611 38.1148C44.7134 38.1015 44.6701 38.0879 44.6237 38.0745C44.4157 38.0143 44.2212 37.9528 44.0423 37.8903C44.0028 37.8766 43.9604 37.8628 43.9223 37.849C43.7267 37.7781 43.549 37.7071 43.389 37.6376C43.3527 37.6219 43.3194 37.6065 43.2849 37.5911C43.1471 37.5291 43.0202 37.4685 42.9105 37.4116L42.8623 37.3874C42.743 37.3244 42.6431 37.2669 42.5578 37.2151L42.533 37.1997V33.5733H42.5333ZM42.5333 39.3733C42.5727 39.3908 42.6201 39.4085 42.6609 39.426C42.7726 39.4739 42.886 39.5217 43.0094 39.5698C43.0768 39.5961 43.1497 39.6217 43.2206 39.6478C43.3401 39.6918 43.4617 39.7352 43.5914 39.7783C43.6745 39.8058 43.7617 39.8326 43.849 39.8595C43.9795 39.9 44.1133 39.9393 44.2535 39.978C44.3507 40.0049 44.4505 40.0308 44.5524 40.0567C44.6962 40.0931 44.8451 40.1279 44.9985 40.1619C45.1085 40.1862 45.2189 40.21 45.3338 40.2329C45.4943 40.2649 45.6616 40.2942 45.8319 40.3229C45.9524 40.3431 46.0712 40.3636 46.1966 40.3821C46.3795 40.4091 46.5716 40.4317 46.765 40.4543C46.8911 40.469 47.0133 40.485 47.1438 40.4977C47.3635 40.519 47.5955 40.534 47.8283 40.5489C47.9456 40.5563 48.0568 40.5666 48.1774 40.5724C48.537 40.5895 48.9096 40.5998 49.2999 40.5998C49.69 40.5998 50.0626 40.5895 50.4224 40.5724C50.543 40.5666 50.6541 40.5563 50.7714 40.5489C51.0043 40.534 51.2363 40.5188 51.4559 40.4977C51.5866 40.485 51.7088 40.469 51.8348 40.4543C52.0281 40.4317 52.2204 40.4091 52.4031 40.3821C52.5285 40.3636 52.6473 40.3431 52.7679 40.3229C52.9381 40.2942 53.1054 40.265 53.266 40.2329C53.3809 40.21 53.4914 40.1862 53.6013 40.1619C53.7547 40.1279 53.9035 40.0931 54.0474 40.0567C54.1493 40.0308 54.249 40.0049 54.3463 39.978C54.4864 39.9394 54.6203 39.9 54.7508 39.8595C54.8382 39.8325 54.9254 39.8058 55.0084 39.7783C55.1382 39.7353 55.2597 39.6918 55.3792 39.6478C55.4502 39.6218 55.5231 39.5961 55.5905 39.5698C55.7139 39.5217 55.8272 39.474 55.9389 39.426C55.9797 39.4085 56.0272 39.3908 56.0665 39.3733V42.9988L56.0396 43.0154C55.9551 43.0667 55.8562 43.1235 55.7393 43.1854C55.7204 43.1953 55.6973 43.2063 55.6776 43.2165C55.5702 43.2719 55.4473 43.3306 55.3137 43.3909C55.2781 43.4069 55.244 43.4228 55.2063 43.439C55.0467 43.5081 54.8697 43.5789 54.6749 43.6495C54.6353 43.6639 54.5913 43.678 54.5502 43.6924C54.3712 43.7547 54.1772 43.8162 53.9695 43.8762C53.924 43.8893 53.8815 43.9028 53.8345 43.9157C53.5928 43.9823 53.3294 44.0455 53.0496 44.1046C52.9859 44.1181 52.9186 44.1306 52.853 44.1435C52.5842 44.1964 52.3002 44.245 51.9971 44.2873C51.9577 44.2927 51.9218 44.2995 51.8818 44.3047C51.5485 44.3487 51.1888 44.3828 50.8139 44.4098C50.7256 44.4162 50.6351 44.4215 50.5444 44.4267C50.1496 44.4498 49.7402 44.4662 49.2999 44.4662C48.8591 44.4662 48.4493 44.4497 48.0542 44.4266C47.9629 44.4213 47.8716 44.4159 47.7828 44.4096C47.4082 44.3824 47.049 44.3483 46.716 44.3044C46.6736 44.2987 46.6351 44.2917 46.5932 44.2858C46.2918 44.2436 46.0088 44.1952 45.7414 44.1425C45.6765 44.1297 45.6097 44.1174 45.5467 44.1041C45.2666 44.0448 45.0031 43.9816 44.7611 43.9148C44.7134 43.9015 44.6701 43.8879 44.6237 43.8745C44.4157 43.8143 44.2212 43.7528 44.0423 43.6903C44.0028 43.6766 43.9604 43.6628 43.9223 43.649C43.7267 43.5781 43.549 43.5071 43.389 43.4376C43.3527 43.4219 43.3194 43.4065 43.2849 43.3911C43.1471 43.3291 43.0202 43.2685 42.9105 43.2117L42.8623 43.1874C42.743 43.1244 42.6431 43.0669 42.5578 43.0151L42.533 42.9997V39.3733H42.5333ZM42.5333 45.1733C42.5727 45.1908 42.6201 45.2085 42.6609 45.226C42.7726 45.2739 42.886 45.3217 43.0094 45.3698C43.0768 45.3961 43.1497 45.4217 43.2206 45.4478C43.3401 45.4918 43.4617 45.5352 43.5914 45.5783C43.6745 45.6059 43.7617 45.6326 43.849 45.6595C43.9795 45.7 44.1133 45.7393 44.2535 45.778C44.3507 45.8049 44.4505 45.8308 44.5524 45.8567C44.6962 45.8931 44.8451 45.9279 44.9985 45.9619C45.1085 45.9862 45.2189 46.01 45.3338 46.0329C45.4943 46.0649 45.6616 46.0942 45.8319 46.1229C45.9524 46.1431 46.0712 46.1636 46.1966 46.1821C46.3795 46.209 46.5716 46.2317 46.765 46.2543C46.8911 46.269 47.0133 46.285 47.1438 46.2977C47.3635 46.319 47.5955 46.334 47.8283 46.3489C47.9456 46.3563 48.0568 46.3666 48.1774 46.3724C48.537 46.3895 48.9096 46.3998 49.2999 46.3998C49.69 46.3998 50.0626 46.3895 50.4224 46.3724C50.543 46.3666 50.6541 46.3563 50.7714 46.3489C51.0043 46.334 51.2363 46.3188 51.4559 46.2977C51.5866 46.285 51.7088 46.269 51.8348 46.2543C52.0281 46.2317 52.2204 46.2091 52.4031 46.1821C52.5285 46.1636 52.6473 46.1431 52.7679 46.1229C52.9381 46.0942 53.1054 46.0649 53.266 46.0329C53.3809 46.01 53.4914 45.9862 53.6013 45.9619C53.7547 45.9279 53.9035 45.8931 54.0474 45.8567C54.1493 45.8308 54.249 45.8049 54.3463 45.778C54.4864 45.7394 54.6203 45.7 54.7508 45.6595C54.8382 45.6325 54.9254 45.6059 55.0084 45.5783C55.1382 45.5353 55.2597 45.4918 55.3792 45.4478C55.4502 45.4218 55.5231 45.3961 55.5905 45.3698C55.7139 45.3217 55.8272 45.274 55.9389 45.226C55.9797 45.2085 56.0272 45.1908 56.0665 45.1733V48.7988L56.0396 48.8154C55.9551 48.8666 55.8562 48.9235 55.7393 48.9854C55.7204 48.9953 55.6973 49.0063 55.6776 49.0165C55.5702 49.0719 55.4473 49.1306 55.3137 49.1909C55.2781 49.2069 55.244 49.2228 55.2063 49.239C55.0467 49.3081 54.8697 49.3789 54.6749 49.4495C54.6353 49.4639 54.5913 49.478 54.5502 49.4924C54.3712 49.5547 54.1772 49.6162 53.9695 49.6762C53.924 49.6893 53.8815 49.7028 53.8345 49.7157C53.5928 49.7823 53.3294 49.8455 53.0496 49.9046C52.9859 49.9181 52.9186 49.9306 52.853 49.9435C52.5842 49.9964 52.3002 50.045 51.9971 50.0873C51.9577 50.0927 51.9218 50.0995 51.8818 50.1047C51.5485 50.1487 51.1888 50.1828 50.8139 50.2098C50.7256 50.2162 50.6351 50.2215 50.5444 50.2268C50.1496 50.2499 49.7402 50.2664 49.2999 50.2664C48.8591 50.2664 48.4493 50.2498 48.0542 50.2267C47.9629 50.2214 47.8716 50.2161 47.7828 50.2097C47.4082 50.1825 47.049 50.1484 46.716 50.1045C46.6736 50.0988 46.6351 50.0918 46.5932 50.0859C46.2918 50.0438 46.0088 49.9953 45.7414 49.9426C45.6765 49.9298 45.6097 49.9176 45.5467 49.9042C45.2666 49.8449 45.0031 49.7817 44.7611 49.7149C44.7134 49.7016 44.6701 49.6881 44.6237 49.6746C44.4157 49.6144 44.2212 49.5528 44.0423 49.4904C44.0028 49.4767 43.9604 49.463 43.9223 49.4491C43.7267 49.3782 43.549 49.3072 43.389 49.2378C43.3527 49.222 43.3194 49.2066 43.2849 49.1912C43.1471 49.1292 43.0202 49.0686 42.9105 49.0118L42.8623 48.9875C42.743 48.9245 42.6431 48.867 42.5578 48.8152L42.533 48.7998V45.1733H42.5333ZM56.0666 54.6003C55.317 55.0604 53.2289 56.0664 49.3 56.0664C45.3635 56.0664 43.2753 55.0568 42.5333 54.6013V50.9735C42.5727 50.9909 42.6201 51.0086 42.6609 51.0261C42.7726 51.074 42.886 51.1219 43.0094 51.1699C43.0768 51.1962 43.1497 51.2218 43.2206 51.2479C43.3401 51.2919 43.4617 51.3353 43.5914 51.3784C43.6745 51.406 43.7617 51.4327 43.849 51.4597C43.9795 51.5001 44.1133 51.5394 44.2535 51.5781C44.3507 51.605 44.4505 51.6309 44.5524 51.6568C44.6962 51.6932 44.8451 51.728 44.9985 51.762C45.1085 51.7864 45.2189 51.8102 45.3338 51.833C45.4943 51.865 45.6616 51.8943 45.8319 51.923C45.9524 51.9433 46.0712 51.9638 46.1966 51.9822C46.3795 52.0091 46.5716 52.0318 46.765 52.0544C46.8911 52.0691 47.0133 52.0851 47.1438 52.0978C47.3635 52.1191 47.5955 52.1341 47.8283 52.149C47.9456 52.1564 48.0568 52.1668 48.1774 52.1725C48.537 52.1896 48.9096 52.2 49.2999 52.2C49.69 52.2 50.0626 52.1896 50.4224 52.1725C50.543 52.1668 50.6541 52.1564 50.7714 52.149C51.0043 52.1341 51.2363 52.119 51.4559 52.0978C51.5866 52.0851 51.7088 52.0691 51.8348 52.0544C52.0281 52.0318 52.2204 52.0092 52.4031 51.9822C52.5285 51.9638 52.6473 51.9433 52.7679 51.923C52.9381 51.8943 53.1054 51.8651 53.266 51.833C53.3809 51.8102 53.4914 51.7864 53.6013 51.762C53.7547 51.728 53.9035 51.6932 54.0474 51.6568C54.1493 51.6309 54.249 51.605 54.3463 51.5781C54.4864 51.5395 54.6203 51.5001 54.7508 51.4597C54.8382 51.4326 54.9254 51.406 55.0084 51.3784C55.1382 51.3354 55.2597 51.2919 55.3792 51.2479C55.4502 51.2219 55.5231 51.1962 55.5905 51.1699C55.7139 51.1219 55.8272 51.0742 55.9389 51.0261C55.9797 51.0086 56.0272 50.991 56.0665 50.9735L56.0666 54.6003Z" fill="black"/>
<path d="M29 23.2002C23.099 23.2002 20.7164 25.294 20.6181 25.3832C20.4154 25.5664 20.2998 25.827 20.3 26.1002V55.1002C20.2998 55.3734 20.4154 55.634 20.6181 55.8172C20.7164 55.9064 23.099 58.0002 29 58.0002C34.9011 58.0002 37.2837 55.9064 37.382 55.8172C37.5847 55.634 37.7003 55.3734 37.7 55.1002V26.1002C37.7003 25.827 37.5847 25.5664 37.382 25.3832C37.2837 25.294 34.9011 23.2002 29 23.2002ZM23.6395 25.9447L23.6736 25.9316C23.876 25.8595 24.1036 25.7884 24.3443 25.7193C24.4075 25.7012 24.4749 25.6838 24.5407 25.666C24.7444 25.6112 24.9625 25.5588 25.1924 25.5092C25.2587 25.4948 25.3215 25.4798 25.39 25.466C25.6833 25.4073 25.9972 25.3545 26.3318 25.3079C26.4 25.2985 26.4746 25.2916 26.5447 25.2829C26.8255 25.2479 27.1217 25.2189 27.4313 25.1956C27.5371 25.1877 27.6428 25.1798 27.752 25.1734C28.1478 25.1502 28.5586 25.1337 29.0002 25.1337C29.4424 25.1337 29.8536 25.1502 30.2499 25.1734C30.3597 25.1799 30.4661 25.1878 30.5725 25.1959C30.8818 25.2192 31.1777 25.2482 31.4581 25.2832C31.5287 25.292 31.604 25.2991 31.6727 25.3085C32.007 25.3545 32.32 25.4079 32.6127 25.4666C32.6836 25.4809 32.7484 25.4964 32.8168 25.5112C33.0446 25.5605 33.2608 25.6124 33.4628 25.6669C33.5294 25.6848 33.5977 25.7026 33.6616 25.7209C33.901 25.7898 34.1272 25.8605 34.3287 25.9323C34.3473 25.939 34.3623 25.9456 34.3807 25.9522C34.5198 26.0028 34.6393 26.0526 34.7603 26.1027C32.9213 26.7956 30.9647 27.1232 29.0002 27.0673C27.0358 27.1231 25.0793 26.7957 23.2402 26.1033C23.3671 26.0504 23.4924 25.9977 23.6395 25.9447ZM22.2334 27.7723C24.3782 28.6505 26.6834 29.0687 29 29.0002C31.3167 29.0687 33.6219 28.6505 35.7667 27.7723V31.3994L35.7398 31.416C35.6553 31.4672 35.5564 31.5241 35.4395 31.586C35.4206 31.5959 35.3975 31.6069 35.3778 31.6171C35.2704 31.6725 35.1475 31.7312 35.0139 31.7914C34.9782 31.8075 34.9441 31.8234 34.9065 31.8396C34.7469 31.9087 34.5699 31.9795 34.3751 32.0501C34.3355 32.0645 34.2915 32.0786 34.2504 32.093C34.0714 32.1553 33.8774 32.2168 33.6697 32.2767C33.6242 32.2899 33.5817 32.3034 33.5347 32.3163C33.293 32.3829 33.0296 32.4461 32.7498 32.5052C32.6861 32.5187 32.6188 32.5312 32.5532 32.5441C32.2844 32.597 32.0004 32.6456 31.6973 32.6878C31.6579 32.6933 31.6219 32.7001 31.582 32.7053C31.2487 32.7492 30.889 32.7833 30.5141 32.8104C30.4258 32.8168 30.3353 32.8221 30.2446 32.8273C29.8498 32.8504 29.4404 32.8668 29 32.8668C28.5597 32.8668 28.1503 32.8503 27.7555 32.8272C27.6648 32.8219 27.5744 32.8166 27.486 32.8102C27.1107 32.783 26.7507 32.7489 26.4172 32.7049C26.3788 32.6998 26.3444 32.6934 26.3064 32.6882C26.0002 32.6457 25.7135 32.5965 25.4423 32.5431C25.3796 32.5307 25.3151 32.5187 25.2542 32.5059C24.971 32.4461 24.7043 32.3823 24.46 32.3148C24.4197 32.3037 24.3833 32.292 24.3441 32.2808C24.1243 32.2177 23.9195 32.1528 23.7317 32.087C23.7001 32.0759 23.6661 32.065 23.6354 32.0539C23.431 31.9801 23.2455 31.906 23.0794 31.8338L23.0122 31.8037C22.8515 31.732 22.7042 31.6617 22.5802 31.5967L22.5773 31.5952C22.4438 31.5252 22.3322 31.4609 22.2398 31.4042L22.2333 31.4003V27.7723H22.2334ZM35.7667 54.6009C35.0171 55.061 32.929 56.0669 29 56.0669C25.0635 56.0669 22.9754 55.0574 22.2334 54.6019V50.974C22.2727 50.9915 22.3202 51.0092 22.361 51.0267C22.4727 51.0746 22.5861 51.1224 22.7094 51.1705C22.7768 51.1968 22.8498 51.2224 22.9207 51.2485C23.0402 51.2925 23.1618 51.3359 23.2915 51.379C23.3746 51.4065 23.4617 51.4333 23.5491 51.4602C23.6796 51.5007 23.8134 51.54 23.9536 51.5787C24.0508 51.6056 24.1506 51.6315 24.2525 51.6574C24.3964 51.6938 24.5453 51.7286 24.6986 51.7626C24.8086 51.7869 24.9191 51.8107 25.034 51.8336C25.1945 51.8656 25.3618 51.8949 25.5321 51.9236C25.6526 51.9438 25.7714 51.9643 25.8968 51.9828C26.0797 52.0097 26.2718 52.0324 26.4652 52.055C26.5912 52.0697 26.7135 52.0857 26.844 52.0984C27.0637 52.1197 27.2957 52.1347 27.5285 52.1496C27.6458 52.157 27.757 52.1673 27.8775 52.1731C28.2372 52.1902 28.6098 52.2005 28.9999 52.2005C29.3901 52.2005 29.7627 52.1902 30.1224 52.1731C30.2431 52.1673 30.3542 52.157 30.4715 52.1496C30.7044 52.1347 30.9364 52.1195 31.156 52.0984C31.2866 52.0857 31.4089 52.0697 31.5348 52.055C31.7282 52.0324 31.9204 52.0098 32.1032 51.9828C32.2286 51.9643 32.3474 51.9438 32.4679 51.9236C32.6382 51.8949 32.8055 51.8657 32.966 51.8336C33.081 51.8107 33.1915 51.7869 33.3013 51.7626C33.4547 51.7286 33.6036 51.6938 33.7474 51.6574C33.8494 51.6315 33.9491 51.6056 34.0463 51.5787C34.1864 51.5401 34.3203 51.5007 34.4508 51.4602C34.5381 51.4332 34.6254 51.4065 34.7084 51.379C34.8381 51.336 34.9597 51.2925 35.0792 51.2485C35.1502 51.2225 35.223 51.1968 35.2904 51.1705C35.4138 51.1224 35.5272 51.0747 35.6389 51.0267C35.6797 51.0092 35.7271 50.9916 35.7665 50.974L35.7667 54.6009ZM35.7668 48.7995L35.7399 48.8161C35.6554 48.8673 35.5565 48.9242 35.4396 48.9861C35.4207 48.996 35.3976 49.007 35.3779 49.0172C35.2705 49.0726 35.1476 49.1313 35.014 49.1916C34.9784 49.2076 34.9443 49.2235 34.9066 49.2397C34.747 49.3088 34.57 49.3796 34.3752 49.4502C34.3356 49.4646 34.2916 49.4787 34.2505 49.4931C34.0715 49.5554 33.8775 49.6169 33.6698 49.6769C33.6243 49.69 33.5818 49.7035 33.5348 49.7164C33.2931 49.783 33.0297 49.8462 32.7499 49.9053C32.6862 49.9188 32.6189 49.9313 32.5533 49.9442C32.2845 49.9971 32.0005 50.0457 31.6974 50.088C31.658 50.0934 31.6221 50.1002 31.5821 50.1054C31.2488 50.1494 30.8891 50.1835 30.5142 50.2105C30.4259 50.2169 30.3354 50.2222 30.2447 50.2275C29.8499 50.2506 29.4405 50.267 29.0002 50.267C28.5594 50.267 28.1496 50.2505 27.7545 50.2274C27.6632 50.2221 27.5719 50.2168 27.4831 50.2104C27.1085 50.1832 26.7493 50.1491 26.4163 50.1052C26.3739 50.0995 26.3354 50.0925 26.2935 50.0866C25.9921 50.0445 25.7091 49.996 25.4417 49.9433C25.3767 49.9305 25.31 49.9183 25.247 49.9049C24.9669 49.8456 24.7034 49.7824 24.4614 49.7156C24.4137 49.7023 24.3704 49.6887 24.3241 49.6753C24.1162 49.6151 23.9217 49.5535 23.7427 49.4911C23.7032 49.4774 23.6608 49.4637 23.6227 49.4498C23.4271 49.3789 23.2494 49.3079 23.0894 49.2385C23.0531 49.2227 23.0198 49.2073 22.9853 49.1919C22.8475 49.1299 22.7206 49.0693 22.6109 49.0125L22.5627 48.9882C22.4434 48.9252 22.3435 48.8677 22.2582 48.8159L22.2334 48.8005V45.174C22.2727 45.1915 22.3202 45.2092 22.361 45.2267C22.4727 45.2746 22.5861 45.3224 22.7094 45.3705C22.7768 45.3968 22.8498 45.4224 22.9207 45.4485C23.0402 45.4925 23.1618 45.5359 23.2915 45.579C23.3746 45.6066 23.4617 45.6333 23.5491 45.6602C23.6796 45.7007 23.8134 45.74 23.9536 45.7787C24.0508 45.8056 24.1506 45.8315 24.2525 45.8574C24.3964 45.8938 24.5453 45.9286 24.6986 45.9626C24.8086 45.9869 24.9191 46.0107 25.034 46.0336C25.1945 46.0656 25.3618 46.0949 25.5321 46.1236C25.6526 46.1438 25.7714 46.1643 25.8968 46.1828C26.0797 46.2097 26.2718 46.2324 26.4652 46.255C26.5912 46.2697 26.7135 46.2857 26.844 46.2984C27.0637 46.3197 27.2957 46.3347 27.5285 46.3496C27.6458 46.357 27.757 46.3673 27.8775 46.3731C28.2372 46.3902 28.6098 46.4005 28.9999 46.4005C29.3901 46.4005 29.7627 46.3902 30.1224 46.3731C30.2431 46.3673 30.3542 46.357 30.4715 46.3496C30.7044 46.3347 30.9364 46.3195 31.156 46.2984C31.2866 46.2857 31.4089 46.2697 31.5348 46.255C31.7282 46.2324 31.9204 46.2098 32.1032 46.1828C32.2286 46.1643 32.3474 46.1438 32.4679 46.1236C32.6382 46.0949 32.8055 46.0656 32.966 46.0336C33.081 46.0107 33.1915 45.9869 33.3013 45.9626C33.4547 45.9286 33.6036 45.8938 33.7474 45.8574C33.8494 45.8315 33.9491 45.8056 34.0463 45.7787C34.1864 45.7401 34.3203 45.7007 34.4508 45.6602C34.5381 45.6332 34.6254 45.6066 34.7084 45.579C34.8381 45.536 34.9597 45.4925 35.0792 45.4485C35.1502 45.4225 35.223 45.3968 35.2904 45.3705C35.4138 45.3224 35.5272 45.2747 35.6389 45.2267C35.6797 45.2092 35.7271 45.1916 35.7665 45.174V48.7995H35.7668ZM35.7668 42.9995L35.7399 43.0161C35.6554 43.0673 35.5565 43.1242 35.4396 43.1861C35.4207 43.196 35.3976 43.207 35.3779 43.2172C35.2705 43.2726 35.1476 43.3313 35.014 43.3916C34.9784 43.4076 34.9443 43.4235 34.9066 43.4397C34.747 43.5088 34.57 43.5796 34.3752 43.6502C34.3356 43.6646 34.2916 43.6787 34.2505 43.6931C34.0715 43.7554 33.8775 43.8169 33.6698 43.8769C33.6243 43.89 33.5818 43.9035 33.5348 43.9164C33.2931 43.983 33.0297 44.0462 32.7499 44.1053C32.6862 44.1188 32.6189 44.1313 32.5533 44.1442C32.2845 44.1971 32.0005 44.2457 31.6974 44.288C31.658 44.2934 31.6221 44.3002 31.5821 44.3054C31.2488 44.3494 30.8891 44.3835 30.5142 44.4105C30.4259 44.4169 30.3354 44.4222 30.2447 44.4274C29.8499 44.4504 29.4405 44.4669 29.0002 44.4669C28.5594 44.4669 28.1496 44.4504 27.7545 44.4273C27.6632 44.422 27.5719 44.4166 27.4831 44.4103C27.1085 44.3831 26.7493 44.349 26.4163 44.3051C26.3739 44.2994 26.3354 44.2924 26.2935 44.2865C25.9921 44.2443 25.7091 44.1959 25.4417 44.1432C25.3767 44.1304 25.31 44.1181 25.247 44.1048C24.9669 44.0455 24.7034 43.9823 24.4614 43.9155C24.4137 43.9022 24.3704 43.8886 24.3241 43.8752C24.1162 43.815 23.9217 43.7535 23.7427 43.691C23.7032 43.6773 23.6608 43.6635 23.6227 43.6497C23.4271 43.5788 23.2494 43.5078 23.0894 43.4383C23.0531 43.4226 23.0198 43.4072 22.9853 43.3918C22.8475 43.3298 22.7206 43.2692 22.6109 43.2124L22.5627 43.1881C22.4434 43.1251 22.3435 43.0676 22.2582 43.0158L22.2334 43.0004V39.3739C22.2727 39.3914 22.3202 39.409 22.361 39.4266C22.4727 39.4745 22.5861 39.5223 22.7093 39.5704C22.7767 39.5966 22.8497 39.6222 22.9206 39.6484C23.0401 39.6924 23.1616 39.7357 23.2914 39.7789C23.3745 39.8064 23.4616 39.8332 23.549 39.8601C23.6795 39.9006 23.8132 39.9399 23.9535 39.9786C24.0507 40.0055 24.1505 40.0314 24.2523 40.0572C24.3962 40.0937 24.545 40.1285 24.6984 40.1625C24.8084 40.1868 24.9189 40.2106 25.0337 40.2335C25.1943 40.2654 25.3616 40.2948 25.5318 40.3235C25.6524 40.3437 25.7712 40.3642 25.8966 40.3827C26.0794 40.4097 26.2716 40.4323 26.4649 40.4549C26.591 40.4696 26.7132 40.4856 26.8437 40.4982C27.0635 40.5195 27.2955 40.5346 27.5283 40.5494C27.6455 40.5569 27.7568 40.5672 27.8773 40.573C28.2371 40.5901 28.6097 40.6004 28.9998 40.6004C29.39 40.6004 29.7625 40.5901 30.1223 40.573C30.243 40.5672 30.3541 40.5569 30.4713 40.5494C30.7043 40.5346 30.9363 40.5194 31.1559 40.4982C31.2865 40.4856 31.4087 40.4696 31.5347 40.4549C31.7281 40.4323 31.9203 40.4097 32.1031 40.3827C32.2285 40.3642 32.3473 40.3437 32.4678 40.3235C32.6381 40.2948 32.8054 40.2656 32.9659 40.2335C33.0809 40.2106 33.1913 40.1868 33.3012 40.1625C33.4546 40.1285 33.6035 40.0937 33.7473 40.0572C33.8493 40.0314 33.949 40.0055 34.0462 39.9786C34.1863 39.94 34.3202 39.9006 34.4507 39.8601C34.538 39.8331 34.6253 39.8064 34.7083 39.7789C34.838 39.7359 34.9595 39.6924 35.0791 39.6484C35.1501 39.6224 35.2229 39.5966 35.2903 39.5704C35.4137 39.5223 35.5271 39.4746 35.6388 39.4266C35.6796 39.409 35.727 39.3915 35.7663 39.3739V42.9995H35.7668ZM35.7668 37.1995L35.7399 37.2161C35.6554 37.2673 35.5565 37.3242 35.4396 37.3861C35.4207 37.396 35.3976 37.407 35.3779 37.4172C35.2705 37.4726 35.1476 37.5313 35.014 37.5916C34.9784 37.6076 34.9443 37.6235 34.9066 37.6397C34.747 37.7088 34.57 37.7796 34.3752 37.8502C34.3356 37.8646 34.2916 37.8787 34.2505 37.8931C34.0715 37.9554 33.8775 38.0169 33.6698 38.0769C33.6243 38.09 33.5818 38.1035 33.5348 38.1164C33.2931 38.183 33.0297 38.2462 32.7499 38.3053C32.6862 38.3188 32.6189 38.3313 32.5533 38.3442C32.2845 38.3971 32.0005 38.4457 31.6974 38.488C31.658 38.4934 31.6221 38.5002 31.5821 38.5054C31.2488 38.5494 30.8891 38.5834 30.5142 38.6105C30.4259 38.6169 30.3354 38.6222 30.2447 38.6274C29.8499 38.6504 29.4405 38.6669 29.0002 38.6669C28.5594 38.6669 28.1496 38.6504 27.7545 38.6273C27.6632 38.622 27.5719 38.6166 27.4831 38.6103C27.1085 38.5831 26.7493 38.549 26.4163 38.5051C26.3739 38.4994 26.3354 38.4924 26.2935 38.4865C25.9921 38.4443 25.7091 38.3959 25.4417 38.3432C25.3767 38.3304 25.31 38.3181 25.247 38.3048C24.9669 38.2455 24.7034 38.1823 24.4614 38.1155C24.4137 38.1022 24.3704 38.0886 24.3241 38.0752C24.1162 38.015 23.9217 37.9535 23.7427 37.891C23.7032 37.8773 23.6608 37.8635 23.6227 37.8497C23.4271 37.7788 23.2494 37.7078 23.0894 37.6383C23.0531 37.6226 23.0198 37.6072 22.9853 37.5918C22.8475 37.5298 22.7206 37.4692 22.6109 37.4123L22.5627 37.3881C22.4434 37.3251 22.3435 37.2676 22.2582 37.2158L22.2334 37.2004V33.5739C22.2727 33.5914 22.3202 33.609 22.361 33.6266C22.4727 33.6745 22.5861 33.7223 22.7093 33.7704C22.7767 33.7966 22.8497 33.8222 22.9206 33.8484C23.0401 33.8924 23.1616 33.9357 23.2914 33.9789C23.3745 34.0064 23.4616 34.0332 23.549 34.0601C23.6795 34.1006 23.8132 34.1399 23.9535 34.1786C24.0507 34.2055 24.1505 34.2314 24.2523 34.2572C24.3962 34.2937 24.545 34.3285 24.6984 34.3625C24.8084 34.3868 24.9189 34.4106 25.0337 34.4335C25.1943 34.4655 25.3616 34.4948 25.5318 34.5234C25.6524 34.5437 25.7712 34.5642 25.8966 34.5827C26.0794 34.6097 26.2716 34.6323 26.4649 34.6549C26.591 34.6696 26.7132 34.6856 26.8437 34.6982C27.0635 34.7195 27.2955 34.7346 27.5283 34.7494C27.6455 34.7569 27.7568 34.7672 27.8773 34.773C28.2371 34.7901 28.6097 34.8004 28.9998 34.8004C29.39 34.8004 29.7625 34.7901 30.1223 34.773C30.243 34.7672 30.3541 34.7569 30.4713 34.7494C30.7043 34.7346 30.9363 34.7194 31.1559 34.6982C31.2865 34.6856 31.4087 34.6696 31.5347 34.6549C31.7281 34.6323 31.9203 34.6097 32.1031 34.5827C32.2285 34.5642 32.3473 34.5437 32.4678 34.5234C32.6381 34.4948 32.8054 34.4656 32.9659 34.4335C33.0809 34.4106 33.1913 34.3868 33.3012 34.3625C33.4546 34.3285 33.6035 34.2937 33.7473 34.2572C33.8493 34.2314 33.949 34.2055 34.0462 34.1786C34.1863 34.14 34.3202 34.1006 34.4507 34.0601C34.538 34.0331 34.6253 34.0064 34.7083 33.9789C34.838 33.9359 34.9595 33.8924 35.0791 33.8484C35.1501 33.8224 35.2229 33.7966 35.2903 33.7704C35.4137 33.7223 35.5271 33.6746 35.6388 33.6266C35.6796 33.609 35.727 33.5915 35.7663 33.5739V37.1995H35.7668Z" fill="black"/>
<path d="M8.70003 32.8666C8.95638 32.8667 9.20232 32.7649 9.38368 32.5835C9.56493 32.4023 9.66677 32.1564 9.66677 31.8999V14.5C9.66734 13.9663 10.0997 13.5338 10.6334 13.5334H28.0334V18.7358L27.4991 18.4687C27.19 18.3133 26.8214 18.3348 26.5326 18.5251C26.2438 18.7155 26.0787 19.0457 26.0997 19.391C26.1206 19.7363 26.3246 20.0441 26.6344 20.198L28.5677 21.1647C28.5762 21.1689 28.5861 21.1671 28.5946 21.171C28.8499 21.2986 29.1505 21.2986 29.4058 21.171C29.4143 21.1671 29.4242 21.1689 29.4325 21.1647L31.3659 20.198C31.6757 20.0441 31.8796 19.7363 31.9006 19.391C31.9216 19.0457 31.7565 18.7155 31.4676 18.5251C31.1788 18.3347 30.8103 18.3132 30.5012 18.4687L29.9669 18.7358V2.9C29.9674 2.36633 30.4 1.93382 30.9335 1.93337H47.3669C47.9006 1.93394 48.3331 2.36633 48.3335 2.9V7.13581L47.7992 6.86869C47.4901 6.71327 47.1215 6.7348 46.8326 6.92511C46.5438 7.11553 46.3787 7.44575 46.3997 7.79103C46.4206 8.13631 46.6245 8.4441 46.9344 8.59805L48.8677 9.56468C48.8762 9.56887 48.8861 9.56705 48.8946 9.57102C49.1499 9.69857 49.4505 9.69857 49.7058 9.57102C49.7143 9.56705 49.7242 9.56887 49.7325 9.56468L51.6659 8.59805C52.1421 8.35857 52.3346 7.7788 52.0963 7.302C51.8579 6.82519 51.2786 6.63137 50.8012 6.86858L50.2669 7.1357V2.9C50.2652 1.29911 48.9678 0.00169922 47.3669 0H30.9334C29.3325 0.00169922 28.0351 1.29911 28.0334 2.9V11.6H10.6334C9.03251 11.6017 7.7351 12.8991 7.7334 14.5V31.9C7.73329 32.1564 7.83513 32.4023 8.01649 32.5837C8.19774 32.7649 8.44367 32.8667 8.70003 32.8666Z" fill="black"/>
</svg>
