<svg width="58" height="58" viewBox="0 0 58 58" fill="none" xmlns="http://www.w3.org/2000/svg">
<g clip-path="url(#clip0)">
<path d="M37.3755 19.6303C32.2039 15.0044 24.2615 15.4466 19.6354 20.6184C17.5749 22.9219 16.4358 25.9041 16.4359 28.9948C16.4331 32.5702 17.9567 35.9769 20.6235 38.3585C25.7951 42.9845 33.7375 42.5422 38.3636 37.3705C42.9895 32.1989 42.5471 24.2563 37.3755 19.6303ZM36.0863 36.9179C31.7101 40.8319 24.9895 40.4571 21.0755 36.0808C19.3325 34.132 18.3689 31.6092 18.3688 28.9947C18.3662 25.9686 19.6556 23.0854 21.9127 21.0699C26.2889 17.156 33.0096 17.5308 36.9235 21.9071C40.8374 26.2833 40.4626 33.004 36.0863 36.9179Z" fill="black"/>
<path d="M34.6822 30.9683C34.489 30.2002 34.0628 29.5108 33.462 28.9947C35.0685 27.6147 35.252 25.1935 33.8719 23.5871C33.3559 22.9863 32.6664 22.5601 31.8984 22.367V20.2969H29.9655V22.2297H28.0326V20.2969H26.0998V22.2297H24.1669V24.1626H25.1334V33.8269H24.1669V35.7597H26.0998V37.6926H28.0326V35.7597H29.9655V37.6926H31.8984V35.6225C33.9523 35.1061 35.1986 33.0222 34.6822 30.9683ZM30.9319 33.8269H27.0662V29.9612H30.9319C31.9995 29.9612 32.8648 30.8265 32.8648 31.894C32.8648 32.9616 31.9995 33.8269 30.9319 33.8269ZM30.9319 28.0283H27.0662V24.1626H30.9319C31.9995 24.1626 32.8648 25.0279 32.8648 26.0954C32.8648 27.163 31.9995 28.0283 30.9319 28.0283Z" fill="black"/>
<path d="M56.0591 31.7159C57.5663 31.1863 58.3587 29.5351 57.8291 28.028C57.2995 26.5208 55.6484 25.7283 54.1412 26.258C53.3132 26.5488 52.6622 27.2 52.3712 28.028H45.3791C45.0427 22.3236 41.7679 17.2034 36.7305 14.5057V8.69938H47.5391C47.8314 9.51783 48.4757 10.1621 49.2941 10.4544V18.3637C49.2941 18.8974 49.7268 19.3301 50.2605 19.3301H57.992V17.3972H51.227V10.4544C52.7341 9.92482 53.5266 8.27367 52.997 6.76653C52.4674 5.25938 50.8162 4.46691 49.3091 4.99651C48.4811 5.28741 47.8301 5.93854 47.5391 6.76653H35.7641C35.2304 6.76653 34.7977 7.19924 34.7977 7.73296V13.6417C32.9462 12.9338 30.9812 12.569 28.9991 12.5651C28.3529 12.5686 27.7076 12.6099 27.0662 12.6888V11.4208C28.5693 10.8972 29.3632 9.25424 28.8396 7.75132C28.5502 6.92055 27.8971 6.26737 27.0662 5.97792V1.93438H57.992V0.00152208H26.0998C25.5661 0.00152208 25.1334 0.434241 25.1334 0.967951V5.97792C24.3149 6.27026 23.6707 6.91451 23.3783 7.73296H14.5027V5.62227C16.0098 5.09267 16.8023 3.44153 16.2727 1.93438C15.7431 0.427234 14.0919 -0.365238 12.5848 0.164365C11.7568 0.455261 11.1058 1.10639 10.8148 1.93438H0.00622559V3.86724H10.8148C11.1071 4.68568 11.7514 5.32993 12.5698 5.62227V8.69938C12.5698 9.2331 13.0025 9.66581 13.5362 9.66581H23.3783C23.6707 10.4843 24.3149 11.1285 25.1334 11.4208V13.0483C18.1276 14.7558 13.053 20.8302 12.6191 28.028H6.77123V23.9844C8.27427 23.4607 9.06819 21.8178 8.54463 20.3149C8.25518 19.4841 7.60212 18.8309 6.77123 18.5415V12.5651C6.77123 12.0314 6.33851 11.5987 5.8048 11.5987H0.00622559V13.5315H4.83837V18.5415C3.33533 19.0652 2.54141 20.7081 3.06497 22.211C3.35442 23.0418 4.00748 23.695 4.83837 23.9844V28.9944C4.83837 29.5281 5.27109 29.9608 5.8048 29.9608H12.6191C12.7505 32.3264 13.396 34.635 14.5104 36.7258H9.67052C9.13681 36.7258 8.70409 37.1585 8.70409 37.6923V42.5244H0.00622559V44.4573H8.70409V46.3901C8.70409 46.9238 9.13681 47.3565 9.67052 47.3565H16.4355V49.4672C15.6171 49.7596 14.9728 50.4038 14.6805 51.2223H0.00622559V53.1551H14.6805C15.2101 54.6623 16.8612 55.4547 18.3684 54.9251C19.8755 54.3955 20.668 52.7444 20.1384 51.2372C19.8475 50.4093 19.1964 49.7582 18.3684 49.4672V46.3901C18.3684 45.8564 17.9357 45.4237 17.4019 45.4237H10.6369V38.6587H15.7426C18.6292 42.6221 23.1379 45.0859 28.0327 45.3744V52.1887C28.0327 52.7224 28.4654 53.1551 28.9991 53.1551H36.7305V57.9873H38.6634V52.1887C38.6634 51.655 38.2307 51.2223 37.697 51.2223H29.9655V45.3744C33.9858 45.1455 37.7807 43.4426 40.6243 40.5915H46.3948V52.3665C44.8851 52.9002 44.094 54.5568 44.6278 56.0664C45.1615 57.5761 46.8181 58.3672 48.3277 57.8334C49.8372 57.2995 50.6285 55.6431 50.0947 54.1335C49.8028 53.3078 49.1533 52.6584 48.3277 52.3665V39.6251C48.3277 39.0914 47.895 38.6587 47.3612 38.6587H42.2556C44.1139 36.1213 45.1986 33.1007 45.3791 29.9608H52.3712C52.6636 30.7793 53.3078 31.4235 54.1263 31.7159V44.4573C54.1263 44.991 54.559 45.4237 55.0927 45.4237H57.992V43.4908H56.0591V31.7159ZM50.2605 6.76653C50.7942 6.76653 51.227 7.19924 51.227 7.73296C51.227 8.26667 50.7942 8.69938 50.2605 8.69938C49.7268 8.69938 49.2941 8.26667 49.2941 7.73296C49.2941 7.19924 49.7268 6.76653 50.2605 6.76653ZM13.5362 3.86724C13.0025 3.86724 12.5698 3.43452 12.5698 2.90081C12.5698 2.3671 13.0025 1.93438 13.5362 1.93438C14.0699 1.93438 14.5027 2.3671 14.5027 2.90081C14.5027 3.43452 14.0699 3.86724 13.5362 3.86724ZM5.8048 22.2294C5.27109 22.2294 4.83837 21.7967 4.83837 21.263C4.83837 20.7292 5.27109 20.2965 5.8048 20.2965C6.33851 20.2965 6.77123 20.7292 6.77123 21.263C6.77123 21.7967 6.33851 22.2294 5.8048 22.2294ZM17.4019 51.2223C17.9357 51.2223 18.3684 51.655 18.3684 52.1887C18.3684 52.7224 17.9357 53.1551 17.4019 53.1551C16.8682 53.1551 16.4355 52.7224 16.4355 52.1887C16.4355 51.655 16.8682 51.2223 17.4019 51.2223ZM47.3612 54.1216C47.895 54.1216 48.3277 54.5543 48.3277 55.088C48.3277 55.6217 47.895 56.0544 47.3612 56.0544C46.8275 56.0544 46.3948 55.6217 46.3948 55.088C46.3948 54.5543 46.8275 54.1216 47.3612 54.1216ZM26.0998 7.73296C26.6335 7.73296 27.0662 8.16567 27.0662 8.69938C27.0662 9.2331 26.6335 9.66581 26.0998 9.66581C25.5661 9.66581 25.1334 9.2331 25.1334 8.69938C25.1334 8.16567 25.5661 7.73296 26.0998 7.73296ZM28.9991 43.4908C20.993 43.4908 14.5027 37.0005 14.5027 28.9944C14.5117 20.992 20.9967 14.507 28.9991 14.498C37.0052 14.498 43.4955 20.9883 43.4955 28.9944C43.4955 37.0005 37.0052 43.4908 28.9991 43.4908ZM55.0927 29.9608C54.559 29.9608 54.1263 29.5281 54.1263 28.9944C54.1263 28.4607 54.559 28.028 55.0927 28.028C55.6264 28.028 56.0591 28.4607 56.0591 28.9944C56.0591 29.5281 55.6264 29.9608 55.0927 29.9608Z" fill="black"/>
<path d="M5.8048 38.6582H0.00622559V40.5911H5.8048V38.6582Z" fill="black"/>
<path d="M33.8312 47.3564H31.8984V49.2893H33.8312V47.3564Z" fill="black"/>
<path d="M47.3613 12.5654H45.4284V15.4647H47.3613V12.5654Z" fill="black"/>
</g>
<defs>
<clipPath id="clip0">
<rect width="58" height="58" fill="white"/>
</clipPath>
</defs>
</svg>
