<svg width="58" height="58" viewBox="0 0 58 58" fill="none" xmlns="http://www.w3.org/2000/svg">
<path d="M29.0001 16C21.8204 16 16.0001 21.8203 16.0001 29C16.0001 36.1797 21.8204 42 29.0001 42C36.1766 41.9923 41.9925 36.1765 42.0001 29C42.0001 21.8203 36.1798 16 29.0001 16ZM38.6628 23.4741C39.4732 24.8822 39.9625 26.4521 40.0956 28.0714H35.4778C35.4365 26.7166 35.2843 25.3677 35.0228 24.0377C36.3228 23.8956 37.5485 23.7062 38.6628 23.4741ZM37.4984 21.8101C36.5828 21.9754 35.6004 22.1137 34.566 22.2214C34.1998 20.9345 33.646 19.7087 32.9224 18.5833C34.6969 19.2529 36.2718 20.3635 37.4984 21.8101ZM24.3786 28.0714C24.4208 26.7735 24.5736 25.4815 24.8355 24.2095C26.1791 24.307 27.5785 24.3571 29.0001 24.3571C30.4218 24.3571 31.8211 24.307 33.1648 24.2095C33.4266 25.4815 33.5795 26.7735 33.6216 28.0714H24.3786ZM33.6216 29.9286C33.5794 31.2265 33.4266 32.5185 33.1648 33.7905C31.8211 33.693 30.4218 33.6429 29.0001 33.6429C27.5785 33.6429 26.1791 33.693 24.8355 33.7905C24.5736 32.5185 24.4208 31.2265 24.3786 29.9286H33.6216ZM29.0001 17.8571C30.3391 17.8571 31.7673 19.5639 32.6819 22.3793C31.4906 22.4564 30.2574 22.5 29.0001 22.5C27.7428 22.5 26.5097 22.4564 25.3183 22.3793C26.233 19.5639 27.6611 17.8571 29.0001 17.8571ZM25.0778 18.5833C24.3542 19.7087 23.8005 20.9345 23.4343 22.2214C22.3998 22.1137 21.4174 21.9754 20.5018 21.8101C21.7285 20.3635 23.3033 19.2529 25.0778 18.5833ZM19.3374 23.4741C20.4517 23.7062 21.6756 23.8956 22.9774 24.0377C22.7159 25.3677 22.5637 26.7166 22.5224 28.0714H17.9046C18.0378 26.4521 18.5271 24.8822 19.3374 23.4741ZM19.3374 34.5259C18.527 33.1178 18.0378 31.5479 17.9046 29.9286H22.5224C22.5637 31.2834 22.7159 32.6323 22.9774 33.9623C21.6774 34.1044 20.4517 34.2938 19.3374 34.5259ZM20.5018 36.1899C21.4174 36.0246 22.3998 35.8863 23.4343 35.7786C23.8005 37.0655 24.3542 38.2913 25.0778 39.4167C23.3033 38.747 21.7285 37.6365 20.5018 36.1899ZM29.0001 40.1429C27.6611 40.1429 26.233 38.4361 25.3183 35.6207C26.5097 35.5436 27.7428 35.5 29.0001 35.5C30.2574 35.5 31.4906 35.5436 32.6819 35.6207C31.7673 38.4361 30.3391 40.1429 29.0001 40.1429ZM32.9224 39.4167C33.646 38.2913 34.1998 37.0655 34.566 35.7786C35.6004 35.8863 36.5828 36.0246 37.4984 36.1899C36.2718 37.6365 34.6969 38.747 32.9224 39.4167ZM38.6628 34.5259C37.5485 34.2938 36.3247 34.1044 35.0228 33.9623C35.2843 32.6323 35.4365 31.2832 35.4778 29.9286H40.0956C39.9625 31.5479 39.4731 33.1178 38.6628 34.5259Z" fill="#333333"/>
<path d="M11 0H1C0.44775 0 0 0.44775 0 1V9C0 9.55225 0.44775 10 1 10H5V12H1V14H11V12H7V10H11C11.5522 10 12 9.55225 12 9V1C12 0.44775 11.5522 0 11 0ZM10 8H2V2H10V8Z" fill="#333333"/>
<path d="M57.0002 0H47.0002C46.448 0 46.0002 0.44775 46.0002 1V9C46.0002 9.55225 46.448 10 47.0002 10H51.0002V12H47.0002V14H57.0002V12H53.0002V10H57.0002C57.5525 10 58.0002 9.55225 58.0002 9V1C58.0002 0.44775 57.5525 0 57.0002 0ZM56.0002 8H48.0002V2H56.0002V8Z" fill="#333333"/>
<path d="M11 54C11.5522 54 12 53.5522 12 53V45C12 44.4477 11.5522 44 11 44H1C0.44775 44 0 44.4477 0 45V53C0 53.5522 0.44775 54 1 54H5V56H0V58H12V56H7V54H11ZM2 52V46H10V52H2Z" fill="#333333"/>
<path d="M57.0002 54C57.5525 54 58.0002 53.5522 58.0002 53V45C58.0002 44.4477 57.5525 44 57.0002 44H47.0002C46.448 44 46.0002 44.4477 46.0002 45V53C46.0002 53.5522 46.448 54 47.0002 54H51.0002V56H46.0002V58H58.0002V56H53.0002V54H57.0002ZM48.0002 52V46H56.0002V52H48.0002Z" fill="#333333"/>
<path d="M15.4264 14.1503L16.7464 13.7094L16.1734 12L13.4702 12.9016C13.2007 12.99 12.9892 13.2016 12.9008 13.4714L11.9998 16.1761L13.7117 16.7459L14.1523 15.4251L16.7257 18L17.9998 16.7252L15.4264 14.1503Z" fill="#333333"/>
<path d="M45.0987 13.4741C45.0105 13.2023 44.7974 12.9892 44.5257 12.901L41.8226 12L41.2531 13.712L42.5731 14.1526L39.9998 16.7259L41.2738 18L43.8472 15.4266L44.2878 16.7467L45.9998 16.1772L45.0987 13.4741Z" fill="#333333"/>
<path d="M17.9998 41.2712L16.7285 40L14.1536 42.5749L13.7128 41.2541L11.9998 41.8239L12.9013 44.5286C12.9898 44.7983 13.2013 45.01 13.4711 45.0984L16.1759 46L16.7457 44.287L15.4249 43.8461L17.9998 41.2712Z" fill="#333333"/>
<path d="M44.2878 41.2541L43.8472 42.5749L41.2738 40L39.9998 41.2748L42.5731 43.8497L41.2531 44.2906L41.8262 46L44.5293 45.0984C44.7988 45.01 45.0103 44.7984 45.0987 44.5286L45.9998 41.8239L44.2878 41.2541Z" fill="#333333"/>
<path d="M29.9999 4H27.9999V12H29.9999V4Z" fill="#333333"/>
<path d="M29.9999 0H27.9999V2H29.9999V0Z" fill="#333333"/>
<path d="M34.116 10.9156L32.183 12.8486L33.55 14.2157L35.4831 12.2827L34.116 10.9156Z" fill="#333333"/>
<path d="M23.8838 10.9161L22.5167 12.2832L24.4497 14.2162L25.8168 12.8492L23.8838 10.9161Z" fill="#333333"/>
<path d="M29.9999 46H27.9999V54H29.9999V46Z" fill="#333333"/>
<path d="M29.9999 56H27.9999V58H29.9999V56Z" fill="#333333"/>
<path d="M33.5505 43.7833L32.1835 45.1504L34.1165 47.0834L35.4836 45.7164L33.5505 43.7833Z" fill="#333333"/>
<path d="M24.45 43.7827L23.0002 45.2324L24.3673 46.5995L25.8171 45.1497L24.45 43.7827Z" fill="#333333"/>
<path d="M54.0002 28H46.0002V30H54.0002V28Z" fill="#333333"/>
<path d="M57.9999 28H55.9999V30H57.9999V28Z" fill="#333333"/>
<path d="M45.7162 22.5162L43.7832 24.4492L45.1503 25.8163L47.0833 23.8833L45.7162 22.5162Z" fill="#333333"/>
<path d="M45.1503 32.1779L43.7832 33.5449L45.7162 35.4779L47.0833 34.1109L45.1503 32.1779Z" fill="#333333"/>
<path d="M11.9998 28H3.99976V30H11.9998V28Z" fill="#333333"/>
<path d="M2 28H0V30H2V28Z" fill="#333333"/>
<path d="M12.2841 22.5167L10.917 23.8838L12.85 25.8168L14.2171 24.4498L12.2841 22.5167Z" fill="#333333"/>
<path d="M12.8493 32.1832L10.9163 34.1162L12.2833 35.4833L14.2163 33.5502L12.8493 32.1832Z" fill="#333333"/>
</svg>
