<svg width="58" height="58" viewBox="0 0 58 58" fill="none" xmlns="http://www.w3.org/2000/svg">
<path d="M30.4342 27.5675C29.9912 27.1246 29.2742 27.1246 28.8312 27.5675C28.3894 28.0093 28.3894 28.7264 28.8312 29.1693C29.2742 29.6111 29.9912 29.6111 30.4342 29.1693C30.8759 28.7264 30.8759 28.0093 30.4342 27.5675Z" fill="#333333"/>
<path d="M44.8516 13.1484C42.638 10.935 39.0547 10.9349 36.8411 13.1484C34.6334 15.3561 34.6333 18.9494 36.8414 21.1589C39.05 23.3661 42.6432 23.367 44.8516 21.1587C47.0648 18.9454 47.0653 15.362 44.8516 13.1484ZM43.2495 19.5566C41.9249 20.8813 39.7687 20.8813 38.4435 19.5568C37.1186 18.2312 37.1185 16.075 38.4432 14.7504C39.7712 13.4224 41.9213 13.4222 43.2495 14.7504C44.5775 16.0783 44.5777 18.2285 43.2495 19.5566Z" fill="#333333"/>
<path d="M57.6679 0.331811C57.4454 0.109441 57.1418 -0.0110904 56.8262 0.000804069C56.5701 0.00997984 50.4716 0.25512 43.2222 2.81743C37.4131 4.86849 32.5711 7.80508 28.8307 11.5456C27.9925 12.3838 27.1769 13.2726 26.3965 14.1959C22.6981 12.0189 19.7345 12.7015 17.8609 13.7042C13.547 16.0129 10.8769 22.2814 10.8769 26.765C10.8772 27.2232 11.1533 27.6363 11.5765 27.8115C11.7166 27.8696 11.8639 27.8979 12.0098 27.8979C12.3047 27.8979 12.5943 27.7826 12.8111 27.5661C15.0861 25.291 17.8922 25.4333 18.8088 25.5538L19.2055 25.9506C18.4248 27.8084 17.7959 29.6558 17.3346 31.4525C17.1681 32.1027 17.2243 32.7908 17.4718 33.4202C16.3811 33.9228 15.3288 34.6609 14.4126 35.5771C11.4967 38.4931 10.9045 45.5997 10.8807 45.9008C10.8547 46.2313 10.9745 46.5566 11.2089 46.791C11.4222 47.0042 11.7108 47.1228 12.0098 47.1228C12.0395 47.1228 12.0693 47.1217 12.0991 47.1193C12.4002 47.0956 19.507 46.5035 22.423 43.5875C23.3388 42.6716 24.0767 41.6195 24.5794 40.529C25.2457 40.7911 25.9315 40.8233 26.5482 40.6653C28.3442 40.2041 30.1913 39.5754 32.0494 38.7946L32.4461 39.1913C32.5665 40.1081 32.7088 42.9142 30.4339 45.189C30.11 45.513 30.013 46.0002 30.1884 46.4234C30.3636 46.8467 30.7766 47.1227 31.2349 47.1227C35.7185 47.1227 41.9869 44.4525 44.2956 40.1387C45.2983 38.2653 45.9809 35.3017 43.8039 31.6032C44.7268 30.8231 45.6157 30.0075 46.4542 29.169C50.1947 25.4284 53.1312 20.5865 55.1823 14.7779C57.7447 7.52811 57.9897 1.42951 57.9989 1.17349C58.0102 0.859135 57.8902 0.554295 57.6679 0.331811ZM13.4096 24.3285C14.1133 20.9229 16.1573 17.1859 18.9304 15.7017C20.7835 14.71 22.8091 14.8072 24.9628 15.9861C23.128 18.3992 21.5329 20.999 20.2033 23.7444C20.1864 23.734 19.9825 23.4776 19.6037 23.3922C19.448 23.357 16.4507 22.7123 13.4096 24.3285ZM20.8209 41.9854C19.2633 43.543 15.6094 44.3645 13.3 44.6999C13.6355 42.3904 14.4571 38.7366 16.0146 37.1791C16.8869 36.3068 17.8983 35.6455 18.9149 35.273L22.727 39.0852C22.3545 40.1017 21.6933 41.1131 20.8209 41.9854ZM25.9854 38.4706C25.6576 38.5545 25.2779 38.4313 24.9956 38.1495C23.53 36.6839 22.9567 36.1106 22.7768 35.9308C22.447 35.601 21.638 34.792 19.8512 33.0051C19.5687 32.722 19.4455 32.3424 19.5292 32.0152C19.892 30.6021 20.3666 29.1523 20.9436 27.6886L30.3114 37.0564C28.8475 37.6336 27.3979 38.108 25.9854 38.4706ZM42.2983 39.0696C40.8141 41.8426 37.0772 43.8867 33.6718 44.5903C34.7576 42.547 34.9969 39.946 34.6002 38.3688C34.5081 38.0024 34.2691 37.8182 34.2557 37.7966C37.0009 36.467 39.6006 34.8719 42.0139 33.0371C43.1928 35.191 43.2899 37.2168 42.2983 39.0696ZM44.8524 27.567C43.8316 28.5876 42.7324 29.5737 41.5854 30.4978C38.8279 32.7181 35.7928 34.5988 32.5548 36.0959L21.9041 25.4454C23.4012 22.2072 25.2819 19.1722 27.502 16.415C28.4269 15.2671 29.4129 14.1678 30.4332 13.1476C33.7891 9.79157 38.1203 7.12063 43.3099 5.19803L52.802 14.6901C50.8796 19.8796 48.2087 24.2108 44.8524 27.567ZM53.6171 12.3009L45.6992 4.38297C50.013 3.04308 53.7659 2.54136 55.6391 2.36102C55.4587 4.23457 54.9568 7.98746 53.6171 12.3009Z" fill="#333333"/>
<path d="M27.2293 46.7906C26.7867 46.3483 26.0694 46.3485 25.6272 46.7909L22.4236 49.9956C21.9813 50.4381 21.9815 51.1554 22.4238 51.5976C22.8664 52.0399 23.5837 52.0399 24.026 51.5974L27.2295 48.3927C27.6718 47.9502 27.6717 47.2329 27.2293 46.7906Z" fill="#333333"/>
<path d="M11.2095 30.7704C10.7672 30.3279 10.0501 30.3279 9.60746 30.7701L6.40274 33.9737C5.96027 34.416 5.96015 35.1333 6.4024 35.5757C6.84454 36.018 7.56172 36.0184 8.00442 35.576L11.2091 32.3724C11.6516 31.9301 11.6517 31.2128 11.2095 30.7704Z" fill="#333333"/>
<path d="M19.2195 48.3933C18.7774 47.9509 18.0599 47.9509 17.6175 48.3932L9.94381 56.0657C9.50133 56.5081 9.50133 57.2254 9.9437 57.6677C10.3858 58.1101 11.1032 58.1103 11.5457 57.6679L19.2194 49.9953C19.6619 49.553 19.6619 48.8357 19.2195 48.3933Z" fill="#333333"/>
<path d="M10.157 48.3933C9.71474 47.9509 8.99733 47.9509 8.55497 48.3932L0.88131 56.0657C0.438834 56.5081 0.438834 57.2254 0.881196 57.6677C1.32333 58.1101 2.04074 58.1103 2.48322 57.6679L10.1569 49.9953C10.5994 49.553 10.5994 48.8357 10.157 48.3933Z" fill="#333333"/>
<path d="M9.60631 38.7809C9.16406 38.3386 8.44665 38.3386 8.00429 38.781L0.331758 46.4547C-0.110605 46.8971 -0.110605 47.6143 0.331871 48.0568C0.774234 48.4992 1.49153 48.4992 1.93389 48.0567L9.60642 40.383C10.0488 39.9405 10.0488 39.2234 9.60631 38.7809Z" fill="#333333"/>
<path d="M35.2396 22.7605C34.7971 22.3181 34.0801 22.3181 33.6375 22.7605L32.0357 24.3623C31.5933 24.8046 31.5933 25.5219 32.0357 25.9644C32.4782 26.4068 33.1953 26.4068 33.6378 25.9644L35.2396 24.3626C35.682 23.9203 35.682 23.203 35.2396 22.7605Z" fill="#333333"/>
</svg>
