<svg width="58" height="58" viewBox="0 0 58 58" fill="none" xmlns="http://www.w3.org/2000/svg">
<path d="M18.9495 20.5866L18.7011 20.6765L22.0361 21.3745C24.7524 21.9448 27.6669 22.2329 30.6945 22.2329C32.2557 22.2329 33.785 22.1517 35.2736 21.9999C37.8237 21.7698 40.1688 21.3455 42.2675 20.7751L42.5314 20.721L42.4985 20.7084C49.0902 18.8669 53.1666 15.6044 53.1666 12.5662C53.1666 8.28968 44.8504 3.86621 30.9333 3.86621C17.0162 3.86621 8.69995 8.28968 8.69995 12.5662C8.69995 15.5397 12.6053 18.7258 18.9495 20.5866ZM27.5113 16.3314C25.9424 15.82 25.0502 14.9442 24.8568 13.7291L24.7524 13.0727L24.1019 12.9345C23.9462 12.9016 23.8418 12.8552 23.78 12.8185L23.9163 12.3719C23.9511 12.3081 24.1608 12.1302 24.5572 12.0162L24.9912 11.8924L25.1749 11.4806C25.3663 11.0514 25.6311 10.6638 25.9608 10.3303C26.1058 10.1834 26.2256 10.0741 26.3223 9.98618C26.6403 9.69618 26.8482 9.45354 26.9468 9.14034C28.0971 9.52024 29.3837 9.55988 30.275 9.52218C30.4132 9.51638 30.5534 9.51348 30.6965 9.51348C34.8154 9.51348 35.8208 10.6435 36.2181 11.4932L36.4046 11.8934L36.829 12.0142C37.2273 12.1273 37.439 12.3062 37.467 12.3545L37.6101 12.8195C37.5482 12.8562 37.4438 12.9016 37.2882 12.9345L36.6366 13.0718L36.5322 13.7291C36.3389 14.9442 35.4457 15.82 33.8778 16.3314L33.1267 16.5759L33.3335 18.372C33.407 19.0003 33.8691 19.5465 34.5409 19.7978L35.2504 20.0637C35.0184 20.0888 34.7777 20.0985 34.5428 20.1188C33.3896 20.2067 32.1977 20.2667 30.9323 20.2667C29.2503 20.2667 27.6689 20.1806 26.185 20.0298L26.824 19.7988C27.5094 19.5513 27.9811 19.0013 28.0546 18.3643L28.2605 16.5759L27.5113 16.3314ZM30.9333 5.79954C44.4492 5.79954 51.2333 10.1379 51.2333 12.5662C51.2333 14.5575 47.0611 17.9795 39.2669 19.4982L35.2359 17.9882L35.2243 17.8877C37.1625 17.0486 37.9832 15.7581 38.309 14.6291C38.7633 14.4299 39.1181 14.1312 39.3375 13.7591C39.584 13.3395 39.641 12.8504 39.497 12.3825L39.3143 11.7871C39.12 11.1549 38.5545 10.6164 37.7676 10.2965C36.3408 7.87304 33.0754 7.58111 30.6945 7.58111C30.5254 7.58111 30.3581 7.58498 30.1938 7.59174C29.1131 7.63524 28.1348 7.52021 27.4369 7.26598C27.0434 7.12291 26.8868 7.02334 26.8385 6.98758C26.4364 6.68984 25.9182 6.72851 25.5828 6.89768L24.9999 7.22828V7.82374C24.9999 8.01031 25.0134 8.23264 25.055 8.47624C25.0569 8.49074 25.0598 8.50524 25.0618 8.51878C25.0473 8.53134 25.0318 8.54488 25.0163 8.55938C24.9013 8.66474 24.7582 8.79524 24.5852 8.97021C24.1918 9.36848 23.8602 9.81604 23.5973 10.3061C22.823 10.6271 22.2671 11.1607 22.0738 11.7861L21.8911 12.3825C21.748 12.8504 21.8041 13.3395 22.0516 13.7591C22.271 14.1312 22.6258 14.4299 23.0791 14.6291C23.4049 15.7581 24.2266 17.0486 26.1638 17.8877L26.1522 17.9873L22.1772 19.4218C14.6498 17.8645 10.6333 14.5227 10.6333 12.5662C10.6333 10.1379 17.4174 5.79954 30.9333 5.79954Z" fill="black"/>
<path d="M52.2 28.6588V28.4152C55.2498 26.2701 57.0333 23.6263 57.0333 20.7331V12.5667C57.0333 5.4027 45.8132 0 30.9333 0C16.0534 0 4.83333 5.4027 4.83333 12.5667V14.761C1.68007 16.8741 0 19.4455 0 22.2333V30.3997C0 33.5868 2.1605 36.4733 5.8 38.7218V44.8997C5.8 52.2454 17.2647 58 31.9 58C46.5353 58 58 52.2454 58 44.8997V36.7333C58 33.6545 55.9835 30.8763 52.2 28.6588ZM56.0667 36.7333C56.0667 42.9132 44.7741 48.3333 31.9 48.3333C31.3442 48.3333 30.7922 48.3188 30.2431 48.2995C30.0798 48.2937 29.9164 48.2879 29.753 48.2802C29.2745 48.2589 28.7989 48.2299 28.3272 48.1932C28.0198 48.169 27.7153 48.14 27.4108 48.11C27.2764 48.0975 27.1421 48.083 27.0087 48.0694C19.0559 47.2139 12.2912 44.3458 9.3322 40.7228C9.29353 40.6744 9.25197 40.6271 9.21427 40.5778C9.1698 40.5207 9.13017 40.4627 9.08667 40.4047C10.4468 40.9847 11.9267 41.4971 13.515 41.9272C17.806 44.7499 24.4828 46.3662 31.9 46.3662C45.0022 46.3662 54.1333 41.2892 54.1333 36.7333C54.1333 35.3906 53.3175 34.0537 51.7669 32.8357C51.7921 32.7671 51.8095 32.6965 51.8327 32.6269C51.8655 32.5264 51.8994 32.4268 51.9274 32.3263C51.9603 32.2093 51.9873 32.0924 52.0144 31.9744C52.0376 31.8729 52.0618 31.7714 52.0811 31.669C52.1033 31.5501 52.1178 31.4302 52.1333 31.3113C52.1468 31.2079 52.1613 31.1054 52.171 31.002C52.1739 30.972 52.1797 30.942 52.1816 30.9121C54.1817 32.2644 56.0667 34.2103 56.0667 36.7333ZM35.8933 50.1081C35.9223 50.1062 35.9503 50.1023 35.9793 50.1004C36.5342 50.055 37.0804 49.9979 37.6227 49.9351C37.7628 49.9187 37.902 49.9022 38.0412 49.8848C38.5777 49.8172 39.1104 49.7447 39.6333 49.6606V55.4528C38.3834 55.6549 37.092 55.8115 35.7667 55.9149V50.1178C35.8082 50.1139 35.8508 50.112 35.8933 50.1081ZM41.5667 49.3048C41.6218 49.2932 41.673 49.2797 41.7271 49.2681C42.2472 49.1579 42.7615 49.0419 43.2641 48.9153C43.3299 48.8988 43.3937 48.8805 43.4594 48.8631C43.7987 48.7761 44.1351 48.6852 44.4657 48.5914V54.3808C43.5367 54.6486 42.5681 54.8873 41.5657 55.0961V49.3048H41.5667ZM46.4 47.9795C46.4522 47.9612 46.5034 47.9438 46.5547 47.9254C46.6281 47.8993 46.6977 47.8722 46.7712 47.8461C47.1704 47.7021 47.561 47.5513 47.9447 47.3966C48.054 47.3522 48.1632 47.3087 48.2705 47.2642C48.2918 47.2555 48.313 47.2468 48.3343 47.2381V53.0023C47.7176 53.2701 47.0738 53.5243 46.401 53.7621V47.9795H46.4ZM50.2667 46.3381C50.4329 46.2531 50.5934 46.1641 50.7548 46.0771C50.8486 46.0269 50.9424 45.9766 51.0342 45.9254C51.4073 45.7166 51.7698 45.502 52.1169 45.2816C52.1439 45.2642 52.172 45.2477 52.199 45.2303V50.8612C51.6113 51.2807 50.9656 51.6828 50.2657 52.0627V46.3381H50.2667ZM11.6 45.2303C12.2022 45.616 12.8547 45.9785 13.5333 46.3275V52.0627C12.8335 51.6819 12.1877 51.2807 11.6 50.8612V45.2303ZM5.8 30.7303C5.82707 30.7477 5.8551 30.7642 5.88217 30.7816C6.23017 31.002 6.5917 31.2166 6.96483 31.4254C7.05667 31.4766 7.1514 31.5269 7.2442 31.5771C7.40563 31.6651 7.5661 31.7531 7.73237 31.8381V36.7333H6.34327C6.1567 36.6106 5.97593 36.4868 5.8 36.3612V30.7303ZM10.0562 32.8957C10.439 33.0513 10.8296 33.2011 11.2298 33.3452C11.3023 33.3713 11.3728 33.3993 11.4463 33.4244C11.4975 33.4428 11.5497 33.4602 11.601 33.4786V39.2602C10.9282 39.0224 10.2844 38.7682 9.66763 38.5004V32.7362C9.6889 32.7449 9.71017 32.7536 9.73143 32.7623C9.83777 32.8087 9.947 32.8522 10.0562 32.8957ZM14.7349 34.4143C15.2376 34.5409 15.7518 34.6569 16.2719 34.7671C16.326 34.7787 16.3782 34.7923 16.4324 34.8039V40.5952C16.3773 40.5836 16.3222 40.572 16.268 40.5604C15.7489 40.4511 15.2385 40.3332 14.7368 40.2066C14.3279 40.1031 13.9277 39.9929 13.5333 39.8798V34.0905C13.8639 34.1852 14.2003 34.2751 14.5396 34.3621C14.6054 34.3795 14.6692 34.3979 14.7349 34.4143ZM20.3764 35.4351C20.9187 35.4979 21.4658 35.555 22.0197 35.6004C22.0487 35.6023 22.0767 35.6062 22.1057 35.6081C22.1473 35.611 22.1898 35.6139 22.2324 35.6168V41.4014C21.5673 41.3501 20.9051 41.2931 20.2526 41.2167C19.9375 41.18 19.6272 41.1346 19.3159 41.092C18.995 41.0476 18.6828 40.9915 18.3657 40.9412V35.1606C18.8887 35.2447 19.4213 35.3181 19.9578 35.3848C20.098 35.4022 20.2372 35.4187 20.3764 35.4351ZM26.1 35.7667C26.7486 35.7667 27.3915 35.7444 28.0333 35.7193V41.5261C28.013 41.527 27.9927 41.528 27.9724 41.528C27.3518 41.5512 26.7293 41.5667 26.1 41.5667C25.4523 41.5667 24.8105 41.5319 24.1667 41.5067V35.728C24.2092 35.7299 24.2537 35.729 24.2962 35.7309C24.8926 35.7522 25.4929 35.7667 26.1 35.7667ZM6.76667 17.6794C6.78213 17.6987 6.8005 17.7171 6.81597 17.7354C7.03057 18.0032 7.2616 18.2671 7.50713 18.5262C7.56223 18.5842 7.62023 18.6402 7.6763 18.6973C7.89477 18.9186 8.12387 19.1361 8.3636 19.3507C8.42063 19.402 8.47477 19.4532 8.53373 19.5035C8.5898 19.5518 8.64393 19.5992 8.7 19.6456V25.0309C7.45783 23.7007 6.76667 22.2459 6.76667 20.7331V17.6794ZM10.6333 21.0637C10.6604 21.0811 10.6884 21.0975 10.7155 21.1149C11.0635 21.3353 11.425 21.5499 11.7982 21.7587C11.89 21.8099 11.9847 21.8602 12.0775 21.9105C12.239 21.9984 12.3994 22.0864 12.5657 22.1715V27.8961C11.8658 27.5152 11.2201 27.114 10.6324 26.6945V21.0637H10.6333ZM14.5 23.0705C14.5213 23.0792 14.5425 23.0879 14.5638 23.0966C14.6711 23.142 14.7803 23.1855 14.8896 23.229C15.2724 23.3846 15.6629 23.5345 16.0631 23.6785C16.1356 23.7046 16.2062 23.7326 16.2796 23.7578C16.3309 23.7761 16.3831 23.7935 16.4343 23.8119V29.5935C15.7615 29.3557 15.1177 29.1015 14.501 28.8337V23.0705H14.5ZM18.3667 24.4238C18.6973 24.5185 19.0337 24.6084 19.373 24.6954C19.4387 24.7128 19.5025 24.7312 19.5682 24.7476C20.0709 24.8743 20.5852 24.9903 21.1052 25.1005C21.1594 25.1121 21.2116 25.1256 21.2657 25.1372V30.9285C20.2633 30.7197 19.2947 30.4809 18.3657 30.2132V24.4238H18.3667ZM23.2 25.4929C23.723 25.577 24.2556 25.6505 24.7921 25.7172C24.9313 25.7346 25.0705 25.751 25.2107 25.7675C25.753 25.8303 26.3001 25.8873 26.854 25.9328C26.883 25.9347 26.911 25.9386 26.94 25.9405C26.9816 25.9434 27.0241 25.9463 27.0667 25.9492V31.7463C25.7414 31.6429 24.4499 31.4872 23.2 31.2842V25.4929ZM30.9333 26.1C31.5404 26.1 32.1407 26.0855 32.7371 26.0642C32.7797 26.0623 32.8241 26.0633 32.8667 26.0613V31.8391C32.2229 31.8642 31.582 31.9 30.9333 31.9C30.2828 31.9 29.639 31.8836 29 31.8594V26.0613C29.0425 26.0633 29.087 26.0623 29.1295 26.0642C29.726 26.0855 30.3263 26.1 30.9333 26.1ZM35.0127 25.9337C35.5675 25.8883 36.1137 25.8313 36.656 25.7684C36.7962 25.752 36.9354 25.7356 37.0746 25.7182C37.6111 25.6505 38.1437 25.578 38.6667 25.4939V31.2736C38.3032 31.3316 37.9475 31.3993 37.5782 31.4495C37.3849 31.4756 37.1935 31.5037 36.9982 31.5278C36.2742 31.6168 35.5385 31.6796 34.8 31.7366V25.9521C34.8416 25.9492 34.8841 25.9463 34.9266 25.9434C34.9556 25.9395 34.9837 25.9357 35.0127 25.9337ZM42.2984 24.7476C42.3642 24.7312 42.428 24.7128 42.4937 24.6954C42.833 24.6084 43.1694 24.5176 43.5 24.4238V30.2132C43.3763 30.2489 43.2516 30.2837 43.1269 30.3176C43.1259 30.3176 43.124 30.3176 43.123 30.3185C42.9065 30.3785 42.688 30.4384 42.4676 30.4954C41.935 30.6327 41.3936 30.7593 40.8426 30.8773C40.7614 30.8947 40.6812 30.9121 40.6 30.9285V25.1372C40.6551 25.1256 40.7063 25.1121 40.7605 25.1005C41.2815 24.9903 41.7958 24.8743 42.2984 24.7476ZM45.8045 23.6795C46.2038 23.5354 46.5943 23.3846 46.9781 23.23C47.0873 23.1855 47.1965 23.142 47.3038 23.0975C47.3251 23.0888 47.3464 23.0801 47.3676 23.0714V28.8357C46.7509 29.1034 46.1071 29.3577 45.4343 29.5955V23.8138C45.4865 23.7955 45.5377 23.7781 45.589 23.7597C45.6615 23.7326 45.732 23.7056 45.8045 23.6795ZM50.0675 21.7577C50.4407 21.5489 50.8032 21.3343 51.1502 21.1139C51.1773 21.0965 51.2053 21.0801 51.2324 21.0627V26.6935C50.6446 27.1131 49.9989 27.5152 49.299 27.8951V22.1705C49.4653 22.0854 49.6258 21.9965 49.7872 21.9095C49.8819 21.8592 49.9757 21.809 50.0675 21.7577ZM23.7094 43.4449C23.7462 43.4468 23.7829 43.4478 23.8187 43.4488C23.8593 43.4507 23.9008 43.4517 23.9424 43.4536C24.0236 43.4565 24.1048 43.4594 24.186 43.4623C24.8182 43.4845 25.4543 43.5 26.1 43.5C26.5524 43.5 27.0009 43.4942 27.4466 43.4836C27.5925 43.4797 27.7356 43.4729 27.8806 43.4681C27.9405 43.4662 28.0005 43.4633 28.0614 43.4613C28.1493 43.4584 28.2383 43.4555 28.3262 43.4517C28.4761 43.4459 28.6269 43.442 28.7757 43.4343C28.9497 43.4256 29.1218 43.413 29.2948 43.4024C29.5568 43.3869 29.8197 43.3734 30.0788 43.354C30.2692 43.3395 30.4568 43.3221 30.6462 43.3057C30.886 43.2854 31.1267 43.2661 31.3635 43.2429C31.553 43.2245 31.7386 43.2013 31.9261 43.181C32.1591 43.1549 32.394 43.1307 32.625 43.1017C32.8145 43.0785 33.0001 43.0505 33.1876 43.0254C33.4119 42.9944 33.6361 42.9654 33.8575 42.9316C34.046 42.9036 34.2306 42.8717 34.4162 42.8407C34.6337 42.805 34.8512 42.7711 35.0658 42.7325C35.2514 42.6996 35.4332 42.6629 35.6168 42.6281C35.8256 42.5884 36.0364 42.5488 36.2423 42.5063C36.4259 42.4686 36.6067 42.427 36.7884 42.3874C36.9905 42.3429 37.1925 42.2994 37.3916 42.253C37.5705 42.2105 37.7464 42.166 37.9223 42.1215C38.1195 42.0722 38.3167 42.0239 38.5101 41.9727C38.6821 41.9272 38.8503 41.8789 39.0205 41.8315C39.2128 41.7774 39.4062 41.7242 39.5956 41.6672C39.7638 41.6169 39.9291 41.5647 40.0944 41.5125C40.2791 41.4545 40.4627 41.3975 40.6435 41.3376C40.8078 41.2834 40.9693 41.2264 41.1307 41.1703C41.3076 41.1085 41.4845 41.0476 41.6575 40.9838C41.817 40.9258 41.9727 40.8649 42.1283 40.8049C42.2984 40.7392 42.4686 40.6735 42.6348 40.6058C42.7866 40.5439 42.9355 40.4801 43.0853 40.4173C43.2496 40.3467 43.4149 40.2771 43.5754 40.2046C43.7204 40.1399 43.8625 40.0732 44.0046 40.0065C44.1622 39.933 44.3188 39.8586 44.4734 39.7822C44.6126 39.7136 44.7499 39.643 44.8862 39.5724C45.0351 39.4951 45.1839 39.4178 45.3289 39.3385C45.4623 39.266 45.5928 39.1925 45.7224 39.1191C45.8645 39.0379 46.0056 38.9567 46.1438 38.8745C46.2695 38.7991 46.3923 38.7237 46.5141 38.6464C46.6494 38.5613 46.7828 38.4762 46.9133 38.3902C47.0312 38.3119 47.1472 38.2326 47.2623 38.1534C47.3889 38.0654 47.5146 37.9765 47.6373 37.8866C47.7475 37.8063 47.8558 37.7242 47.9621 37.642C48.081 37.5502 48.198 37.4583 48.313 37.3646C48.4155 37.2814 48.516 37.1973 48.6156 37.1123C48.7258 37.0175 48.8341 36.9218 48.9404 36.8261C49.0351 36.7401 49.1279 36.6541 49.2188 36.5661C49.3203 36.4685 49.4189 36.3699 49.5165 36.2713C49.6035 36.1823 49.6886 36.0934 49.7717 36.0035C49.8636 35.903 49.9525 35.8024 50.0405 35.7009C50.1188 35.6091 50.1971 35.5173 50.2715 35.4245C50.3546 35.322 50.4339 35.2176 50.5112 35.1132C50.5808 35.0194 50.6504 34.9257 50.7162 34.8309C50.7693 34.7546 50.8215 34.6782 50.8718 34.6009C51.7263 35.3442 52.2 36.0944 52.2 36.7333C52.2 39.3472 45.0351 44.4328 31.9 44.4328C27.9222 44.4328 24.6655 43.9795 22.0603 43.3502C22.6036 43.3917 23.1546 43.4207 23.7094 43.4449ZM40.6 39.2612V33.4399C40.6619 33.4177 40.7228 33.3954 40.7846 33.3732C41.1394 33.2466 41.5019 33.1267 41.8451 32.9904C42.0809 32.8966 42.3013 32.7913 42.5324 32.6927V38.5014C41.9166 38.7691 41.2728 39.0234 40.6 39.2612ZM36.5236 34.6096C36.9286 34.5168 37.3394 34.4307 37.7348 34.3273C38.0519 34.2442 38.3544 34.1456 38.6657 34.0557V39.8798C37.7367 40.1476 36.7681 40.3864 35.7657 40.5952V34.7855C36.0228 34.7314 36.2713 34.6676 36.5236 34.6096ZM44.4667 37.5627V31.9909C45.1327 31.7917 45.7755 31.5771 46.4 31.35V36.3612C45.8123 36.7807 45.1665 37.1819 44.4667 37.5627ZM30.9198 35.5308C31.2388 35.4989 31.5501 35.4515 31.8662 35.4138C32.3321 35.3587 32.8019 35.3094 33.2611 35.2398C33.4544 35.2108 33.641 35.1712 33.8333 35.1393V40.9528C33.7521 40.9664 33.67 40.9789 33.5888 40.9925C33.2997 41.0369 33.0088 41.0804 32.7149 41.1201C32.4877 41.151 32.2615 41.1839 32.0315 41.2119C31.5317 41.2718 31.0261 41.324 30.5157 41.3685C30.3466 41.384 30.1774 41.3985 30.0073 41.412C29.9937 41.413 29.9792 41.4139 29.9657 41.4149V35.6023C30.2837 35.5762 30.6047 35.5617 30.9198 35.5308ZM50.2667 30.3997C50.2667 31.1354 50.1004 31.8565 49.7901 32.5564L49.7021 32.7381C49.415 33.3345 49.0168 33.9097 48.5363 34.4646C48.4783 34.5303 48.4252 34.597 48.3643 34.6618C48.3546 34.6724 48.343 34.6821 48.3333 34.6927V30.5718C49.01 30.2712 49.6567 29.9541 50.2667 29.6196V30.3997ZM15.4667 47.2352C16.0882 47.4972 16.733 47.7446 17.4 47.9766V53.7612C16.7272 53.5234 16.0834 53.2691 15.4667 53.0014V47.2352ZM19.3333 48.5837C20.2691 48.8515 21.2319 49.097 22.2333 49.3048V55.0961C21.2309 54.8873 20.2623 54.6486 19.3333 54.3808V48.5837ZM24.1667 49.6586C24.3175 49.6828 24.4741 49.7012 24.6268 49.7244C24.8578 49.7592 25.0908 49.792 25.3238 49.823C25.6882 49.8723 26.0536 49.9187 26.4238 49.9602C26.7921 50.0018 27.1624 50.0385 27.5355 50.0724C27.7018 50.0869 27.8661 50.1033 28.0333 50.1168V55.9159C26.708 55.8124 25.4166 55.6568 24.1667 55.4538V49.6586ZM55.1 17.6794V20.734C55.1 22.2469 54.4088 23.7017 53.1667 25.0318V19.6465C53.2227 19.6001 53.2769 19.5528 53.332 19.5054C53.39 19.4551 53.4451 19.4029 53.5021 19.3527C53.7428 19.1381 53.9719 18.9206 54.1894 18.6992C54.2455 18.6422 54.3044 18.5851 54.3586 18.5281C54.6051 18.269 54.8351 18.0051 55.0497 17.7374C55.0662 17.7161 55.0845 17.6977 55.1 17.6794ZM30.9333 1.93333C44.485 1.93333 55.1 6.60427 55.1 12.5667C55.1 18.7466 43.8074 24.1667 30.9333 24.1667C18.0593 24.1667 6.76667 18.7466 6.76667 12.5667C6.76667 6.60427 17.3816 1.93333 30.9333 1.93333ZM4.83333 17.1429V20.7331C4.83333 20.9564 4.84493 21.1777 4.8662 21.3981C4.87297 21.4716 4.88747 21.5441 4.89617 21.6176C4.91453 21.7635 4.9329 21.9095 4.95997 22.0545C4.9764 22.1405 4.9996 22.2256 5.0199 22.3116C5.04987 22.4412 5.07887 22.5717 5.1156 22.7002C5.1417 22.7911 5.17457 22.881 5.20453 22.9719C5.24417 23.0927 5.2838 23.2135 5.3302 23.3334C5.36597 23.4272 5.40753 23.519 5.44717 23.6118C5.49647 23.7268 5.54673 23.8428 5.60183 23.9569C5.64727 24.0497 5.69657 24.1415 5.74587 24.2334C5.8058 24.3455 5.86573 24.4567 5.9305 24.5669C5.98463 24.6587 6.04263 24.7505 6.10063 24.8414C6.16927 24.9497 6.23983 25.057 6.3133 25.1643C6.37613 25.2551 6.44283 25.346 6.50953 25.4359C6.58783 25.5403 6.6671 25.6447 6.75023 25.7481C6.82177 25.8371 6.8962 25.926 6.9716 26.0149C7.0586 26.1174 7.1485 26.2179 7.2413 26.3185C7.32057 26.4055 7.40177 26.4915 7.4849 26.5775C7.58157 26.6771 7.6821 26.7757 7.7836 26.8743C7.8706 26.9584 7.9576 27.0425 8.04847 27.1247C8.1548 27.2213 8.26403 27.318 8.3752 27.4127C8.46993 27.4939 8.5637 27.5761 8.66133 27.6563C8.77637 27.7511 8.8972 27.8439 9.01707 27.9376C9.1176 28.0159 9.21717 28.0942 9.32157 28.1706C9.44723 28.2634 9.57773 28.3543 9.70823 28.4451C9.81457 28.5196 9.918 28.594 10.0272 28.6665C10.1645 28.7583 10.3076 28.8482 10.4506 28.9381C10.5599 29.0068 10.6662 29.0773 10.7783 29.145C10.932 29.2388 11.0925 29.3287 11.252 29.4205C11.3593 29.4814 11.4627 29.5442 11.572 29.6042C11.7701 29.7134 11.9751 29.8188 12.18 29.9241C12.2564 29.9638 12.3298 30.0044 12.4072 30.043C12.6904 30.1851 12.9804 30.3234 13.2762 30.4587C13.3787 30.5051 13.486 30.5496 13.5904 30.596C13.7895 30.6839 13.9877 30.7719 14.1926 30.857C14.3192 30.9092 14.4507 30.9594 14.5793 31.0107C14.7668 31.0851 14.9534 31.1605 15.1457 31.233C15.2869 31.2862 15.4309 31.3364 15.574 31.3877C15.7605 31.4544 15.9461 31.522 16.1356 31.5868C16.2854 31.638 16.4382 31.6864 16.5909 31.7357C16.7804 31.7975 16.9689 31.8584 17.1612 31.9174C17.3188 31.9657 17.4793 32.0121 17.6388 32.0585C17.8311 32.1146 18.0245 32.1707 18.2197 32.2248C18.3841 32.2702 18.5494 32.3128 18.7156 32.3563C18.9128 32.4075 19.11 32.4587 19.3101 32.5071C19.4793 32.5486 19.6504 32.5883 19.8225 32.6279C20.0255 32.6743 20.2294 32.7207 20.4353 32.7652C20.6093 32.8029 20.7843 32.8386 20.9593 32.8744C21.1681 32.9169 21.3769 32.9575 21.5886 32.9972C21.7655 33.03 21.9433 33.0629 22.1222 33.0938C22.3377 33.1315 22.5562 33.1673 22.7747 33.2021C22.9535 33.2311 23.1333 33.2591 23.3141 33.2862C23.5364 33.3191 23.7616 33.35 23.9869 33.38C24.1676 33.4041 24.3484 33.4283 24.5311 33.4505C24.7631 33.4786 24.997 33.5047 25.231 33.5298C25.4108 33.5491 25.5896 33.5694 25.7704 33.5868C26.012 33.61 26.2556 33.6303 26.4992 33.6506C26.679 33.6651 26.8569 33.6816 27.0377 33.6941C27.2919 33.7125 27.549 33.727 27.8062 33.7415C27.9773 33.7512 28.1474 33.7628 28.3204 33.7715C28.3572 33.7734 28.3929 33.7763 28.4297 33.7782C27.6592 33.814 26.882 33.8333 26.1 33.8333C13.2259 33.8333 1.93333 28.4132 1.93333 22.2333C1.93333 20.1038 3.30117 18.3928 4.83333 17.1429ZM1.93333 30.3997V27.3451C1.9488 27.3644 1.96717 27.3828 1.98263 27.4011C2.19723 27.6689 2.42827 27.9328 2.6738 28.1919C2.7289 28.2499 2.7869 28.3059 2.84297 28.363C3.06143 28.5843 3.29053 28.8018 3.53027 29.0164C3.5873 29.0677 3.64143 29.1189 3.7004 29.1692C3.75647 29.2185 3.8106 29.2658 3.86667 29.3122V34.6975C2.6245 33.3674 1.93333 31.9126 1.93333 30.3997ZM7.73333 44.8997V41.8451C8.27273 42.5285 8.92717 43.181 9.66667 43.8035V49.1966C8.4245 47.8674 7.73333 46.4126 7.73333 44.8997ZM29.9667 56.0261V50.228C30.0131 50.2299 30.0604 50.229 30.1068 50.2309C30.7004 50.2522 31.2978 50.2667 31.9 50.2667C32.5071 50.2667 33.1074 50.2522 33.7038 50.2309C33.7463 50.229 33.7908 50.2299 33.8333 50.228V56.0261C33.1944 56.0502 32.5506 56.0667 31.9 56.0667C31.2494 56.0667 30.6056 56.0502 29.9667 56.0261ZM56.0667 41.846V44.9007C56.0667 46.4135 55.3755 47.8684 54.1333 49.1985V43.8132C54.1894 43.7668 54.2435 43.7194 54.2986 43.6721C54.3566 43.6218 54.4117 43.5696 54.4688 43.5193C54.7095 43.3047 54.9386 43.0872 55.1561 42.8659C55.2121 42.8088 55.2711 42.7518 55.3252 42.6948C55.5717 42.4357 55.8018 42.1718 56.0164 41.904C56.0328 41.8828 56.0512 41.8644 56.0667 41.846Z" fill="black"/>
</svg>
