<svg width="163" height="46" viewBox="0 0 163 46" fill="none" xmlns="http://www.w3.org/2000/svg">
<path fill-rule="evenodd" clip-rule="evenodd" d="M35.39 22.2111C35.39 26.6511 35.49 28.7911 36.9 33.0511C37.78 35.7011 38.97 37.4511 40.59 39.5311C40.8 39.8011 40.99 39.9211 41.21 40.1811C43.26 42.6411 46.95 44.5411 50.14 45.2211C55.77 46.4111 62.07 45.5511 67.14 43.2911L68.66 42.5311C68.94 42.3811 70.1 41.9011 70.1 41.5911V20.6811C70.1 20.4911 70.04 20.4311 69.85 20.4311H52.83C52.83 21.0711 53.29 23.4111 53.41 24.2511C53.5 24.9411 53.6 25.4611 53.71 26.1511C53.77 26.5111 53.81 26.7711 53.86 27.1111C53.91 27.4211 53.85 27.8811 54.19 27.8811H60.7V37.9511C60.21 38.0711 59.65 38.4211 58.47 38.6811C54.61 39.5411 50.37 38.6811 48.02 35.5711C44.9 31.4611 44.96 20.0611 46.43 14.8811C46.71 13.9111 46.93 13.2911 47.29 12.4311C48.75 8.9211 51.71 7.3011 55.71 7.3011C58.5 7.3011 60.91 8.1511 63.04 9.4611C63.74 9.8911 64.29 10.3411 64.94 10.7811L66.65 8.6811C66.89 8.4311 67.01 8.2511 67.25 8.0011L68.41 6.6311C68.79 6.1311 69.23 5.7311 69.59 5.1911C68.9 4.1411 65.35 2.1711 63.95 1.6111C58.94 -0.388903 53.38 -0.558903 48.25 1.2811C46.54 1.9011 44.72 3.0311 43.31 4.1411C41.48 5.5711 39.61 7.7211 38.49 9.7311C36.5 13.3211 35.39 18.0111 35.39 22.2111Z" fill="#FEFEFE"/>
<path fill-rule="evenodd" clip-rule="evenodd" d="M22.86 32.5411C22.86 40.1611 13.39 38.9611 8.62 37.3711C7.64 37.0511 6.81 36.7011 5.88 36.3111L3.22 35.0811L0.76 40.2411C0.6 40.5611 0.03 41.6711 0 42.0211L3.14 43.5311C7 45.1011 10.4 45.9111 14.98 45.9111C20.14 45.9111 24.39 44.5711 27.33 42.3511C30.64 39.8511 32.85 36.2011 32.85 31.9411V30.3311C32.85 27.3411 31.41 24.2111 29.78 22.5611C28.93 21.7111 28.85 21.6411 27.83 20.8711C22.09 16.5811 11.77 17.8211 11.77 12.5511C11.77 9.11112 14.49 7.39112 17.78 7.39112C21.07 7.39112 24.19 8.62112 26.9 10.1311L28.02 10.6911C28.48 9.83112 31.99 4.79112 32.09 4.43112C31.44 3.54112 27.53 1.79112 26.19 1.35112C20.81 -0.428882 13.35 -0.748882 8.34 2.27112C7.36 2.87112 6.15 3.81112 5.35 4.62112C3.62 6.37112 2.6 8.54112 2.11 11.0211C1.63 13.4011 2 16.5511 2.82 18.3711C3.3 19.4411 3.66 20.2011 4.35 21.0711C5.7 22.7811 7.37 23.8111 9.31 24.6611C11.1 25.4511 13.86 26.1311 15.85 26.6811C17.76 27.2011 20.31 27.8411 21.65 29.4311C22.33 30.2411 22.86 31.4011 22.86 32.5411Z" fill="#FEFEFE"/>
<path fill-rule="evenodd" clip-rule="evenodd" d="M85.6 21.6111L73.69 41.9711C73.43 42.4211 72.09 44.5111 72.05 44.9811H82.89C83.26 44.4211 83.55 43.7411 83.87 43.0911L89.72 31.5811C89.91 31.1911 90.51 29.8411 90.76 29.6611C90.86 30.0811 91.48 31.1711 91.69 31.6011L98.55 44.9811H109.13C109.04 44.5811 106.95 40.9811 106.66 40.5111L105.81 39.0011C105.24 37.9811 104.71 37.0111 104.12 36.0211C102.5 33.3211 100.72 29.8311 99.07 27.1011C98.22 25.6711 96.37 22.1611 95.67 21.1111C95.78 20.6311 96.77 19.0811 97.02 18.6511C98.67 15.7911 100.65 12.2011 102.35 9.41108C102.85 8.57108 106.91 1.62108 106.93 1.29108H96.43C96.3 1.80108 90.7 12.4411 90.59 12.8911L86.1 4.26108C85.86 3.78108 84.75 1.64108 84.67 1.29108H73.91C73.95 1.70108 78.07 8.61108 78.25 8.90108L85.6 21.6111Z" fill="#FEFEFE"/>
<path d="M140.12 36.1311H117.35V45.2811H140.12V36.1311Z" fill="#EBECEC"/>
<path d="M140.12 27.1511H117.35V36.3011H140.12V27.1511Z" fill="#FEFEFE"/>
<path d="M140.12 18.1811H117.35V27.3311H140.12V18.1811Z" fill="#EBECEC"/>
<path d="M140.12 9.20111H117.35V18.3511H140.12V9.20111Z" fill="#FEFEFE"/>
<path d="M140.12 0.221069H117.35V9.37107H140.12V0.221069Z" fill="#EBECEC"/>
<path d="M162.89 36.1311H140.12V45.2811H162.89V36.1311Z" fill="#FEFEFE"/>
<path d="M162.89 27.1511H140.12V36.3011H162.89V27.1511Z" fill="#EBECEC"/>
<path d="M162.89 18.1811H140.12V27.3311H162.89V18.1811Z" fill="#FEFEFE"/>
<path d="M162.89 9.20111H140.12V18.3511H162.89V9.20111Z" fill="#EBECEC"/>
<path d="M162.89 0.221069H140.12V9.37107H162.89V0.221069Z" fill="#FEFEFE"/>
</svg>
