<svg width="294" height="97" viewBox="0 0 294 97" fill="none" xmlns="http://www.w3.org/2000/svg">
<path opacity="0.7" d="M99.3369 66.0527C99.3369 67.9863 98.6387 69.5098 97.2422 70.623C95.8555 71.7363 93.9219 72.293 91.4414 72.293C89.1562 72.293 87.1348 71.8633 85.377 71.0039V66.7852C86.8223 67.4297 88.043 67.8838 89.0391 68.1475C90.0449 68.4111 90.9629 68.543 91.793 68.543C92.7891 68.543 93.5508 68.3525 94.0781 67.9717C94.6152 67.5908 94.8838 67.0244 94.8838 66.2725C94.8838 65.8525 94.7666 65.4814 94.5322 65.1592C94.2979 64.8271 93.9512 64.5098 93.4922 64.207C93.043 63.9043 92.1201 63.4209 90.7236 62.7568C89.415 62.1416 88.4336 61.5508 87.7793 60.9844C87.125 60.418 86.6025 59.7588 86.2119 59.0068C85.8213 58.2549 85.626 57.376 85.626 56.3701C85.626 54.4756 86.2656 52.9863 87.5449 51.9023C88.834 50.8184 90.6113 50.2764 92.877 50.2764C93.9902 50.2764 95.0498 50.4082 96.0557 50.6719C97.0713 50.9355 98.1309 51.3066 99.2344 51.7852L97.7695 55.3154C96.627 54.8467 95.6797 54.5195 94.9277 54.334C94.1855 54.1484 93.4531 54.0557 92.7305 54.0557C91.8711 54.0557 91.2119 54.2559 90.7529 54.6562C90.2939 55.0566 90.0645 55.5791 90.0645 56.2236C90.0645 56.624 90.1572 56.9756 90.3428 57.2783C90.5283 57.5713 90.8213 57.8594 91.2217 58.1426C91.6318 58.416 92.5938 58.9141 94.1074 59.6367C96.1094 60.5938 97.4814 61.5557 98.2236 62.5225C98.9658 63.4795 99.3369 64.6562 99.3369 66.0527ZM107.335 72H102.867V49.207H107.335V72ZM111.847 51.3896C111.847 49.9346 112.657 49.207 114.278 49.207C115.899 49.207 116.71 49.9346 116.71 51.3896C116.71 52.083 116.505 52.625 116.095 53.0156C115.694 53.3965 115.089 53.5869 114.278 53.5869C112.657 53.5869 111.847 52.8545 111.847 51.3896ZM116.505 72H112.037V55.623H116.505V72ZM126.393 72.293C124.469 72.293 122.955 71.5459 121.852 70.0518C120.758 68.5576 120.211 66.4873 120.211 63.8408C120.211 61.1553 120.768 59.0654 121.881 57.5713C123.004 56.0674 124.547 55.3154 126.51 55.3154C128.57 55.3154 130.143 56.1162 131.227 57.7178H131.373C131.148 56.4971 131.036 55.4082 131.036 54.4512V49.207H135.519V72H132.091L131.227 69.876H131.036C130.021 71.4873 128.473 72.293 126.393 72.293ZM127.96 68.7334C129.103 68.7334 129.938 68.4014 130.465 67.7373C131.002 67.0732 131.295 65.9453 131.344 64.3535V63.8701C131.344 62.1123 131.07 60.8525 130.523 60.0908C129.986 59.3291 129.107 58.9482 127.887 58.9482C126.891 58.9482 126.114 59.373 125.558 60.2227C125.011 61.0625 124.737 62.2881 124.737 63.8994C124.737 65.5107 125.016 66.7217 125.572 67.5322C126.129 68.333 126.925 68.7334 127.96 68.7334ZM146.974 58.4941C146.026 58.4941 145.284 58.7969 144.747 59.4023C144.21 59.998 143.902 60.8477 143.824 61.9512H150.094C150.074 60.8477 149.786 59.998 149.229 59.4023C148.673 58.7969 147.921 58.4941 146.974 58.4941ZM147.604 72.293C144.967 72.293 142.906 71.5654 141.422 70.1104C139.938 68.6553 139.195 66.5947 139.195 63.9287C139.195 61.1846 139.879 59.0654 141.246 57.5713C142.623 56.0674 144.522 55.3154 146.944 55.3154C149.259 55.3154 151.061 55.9746 152.35 57.293C153.639 58.6113 154.283 60.4326 154.283 62.7568V64.9248H143.722C143.771 66.1943 144.146 67.1855 144.85 67.8984C145.553 68.6113 146.539 68.9678 147.809 68.9678C148.795 68.9678 149.728 68.8652 150.606 68.6602C151.485 68.4551 152.403 68.1279 153.36 67.6787V71.1357C152.579 71.5264 151.744 71.8145 150.855 72C149.967 72.1953 148.883 72.293 147.604 72.293ZM169.342 67.1367C169.342 68.8164 168.756 70.0957 167.584 70.9746C166.422 71.8535 164.679 72.293 162.354 72.293C161.163 72.293 160.147 72.21 159.308 72.0439C158.468 71.8877 157.682 71.6533 156.949 71.3408V67.6494C157.779 68.04 158.712 68.3672 159.747 68.6309C160.792 68.8945 161.71 69.0264 162.501 69.0264C164.122 69.0264 164.933 68.5576 164.933 67.6201C164.933 67.2686 164.825 66.9854 164.61 66.7705C164.396 66.5459 164.024 66.2969 163.497 66.0234C162.97 65.7402 162.267 65.4131 161.388 65.042C160.128 64.5146 159.2 64.0264 158.604 63.5771C158.019 63.1279 157.589 62.6152 157.315 62.0391C157.052 61.4531 156.92 60.7354 156.92 59.8857C156.92 58.4307 157.481 57.3076 158.604 56.5166C159.737 55.7158 161.339 55.3154 163.409 55.3154C165.382 55.3154 167.301 55.7451 169.166 56.6045L167.818 59.8271C166.998 59.4756 166.231 59.1875 165.519 58.9629C164.806 58.7383 164.078 58.626 163.336 58.626C162.018 58.626 161.358 58.9824 161.358 59.6953C161.358 60.0957 161.568 60.4424 161.988 60.7354C162.418 61.0283 163.351 61.4629 164.786 62.0391C166.065 62.5566 167.003 63.04 167.599 63.4893C168.194 63.9385 168.634 64.4561 168.917 65.042C169.2 65.6279 169.342 66.3262 169.342 67.1367ZM187.945 72H183.478V62.4346C183.478 60.0713 182.599 58.8896 180.841 58.8896C179.591 58.8896 178.688 59.3145 178.131 60.1641C177.574 61.0137 177.296 62.3906 177.296 64.2949V72H172.828V49.207H177.296V53.8506C177.296 54.2119 177.262 55.0615 177.193 56.3994L177.091 57.7178H177.325C178.321 56.1162 179.903 55.3154 182.071 55.3154C183.995 55.3154 185.455 55.833 186.451 56.8682C187.447 57.9033 187.945 59.3877 187.945 61.3213V72ZM202.945 72L202.081 69.7734H201.964C201.212 70.7207 200.436 71.3799 199.635 71.751C198.844 72.1123 197.809 72.293 196.529 72.293C194.957 72.293 193.717 71.8438 192.809 70.9453C191.91 70.0469 191.461 68.7676 191.461 67.1074C191.461 65.3691 192.066 64.0898 193.277 63.2695C194.498 62.4395 196.334 61.9805 198.785 61.8926L201.627 61.8047V61.0869C201.627 59.4268 200.777 58.5967 199.078 58.5967C197.77 58.5967 196.231 58.9922 194.464 59.7832L192.984 56.7656C194.869 55.7793 196.959 55.2861 199.254 55.2861C201.451 55.2861 203.136 55.7646 204.308 56.7217C205.479 57.6787 206.065 59.1338 206.065 61.0869V72H202.945ZM201.627 64.4121L199.898 64.4707C198.6 64.5098 197.633 64.7441 196.998 65.1738C196.363 65.6035 196.046 66.2578 196.046 67.1367C196.046 68.3965 196.769 69.0264 198.214 69.0264C199.249 69.0264 200.074 68.7285 200.689 68.1328C201.314 67.5371 201.627 66.7461 201.627 65.7598V64.4121ZM219.82 55.3154C220.426 55.3154 220.929 55.3594 221.329 55.4473L220.992 59.6367C220.631 59.5391 220.191 59.4902 219.674 59.4902C218.248 59.4902 217.135 59.8564 216.334 60.5889C215.543 61.3213 215.147 62.3467 215.147 63.665V72H210.68V55.623H214.063L214.723 58.377H214.942C215.45 57.459 216.134 56.7217 216.993 56.165C217.862 55.5986 218.805 55.3154 219.82 55.3154ZM231.085 58.4941C230.138 58.4941 229.396 58.7969 228.858 59.4023C228.321 59.998 228.014 60.8477 227.936 61.9512H234.205C234.186 60.8477 233.897 59.998 233.341 59.4023C232.784 58.7969 232.032 58.4941 231.085 58.4941ZM231.715 72.293C229.078 72.293 227.018 71.5654 225.533 70.1104C224.049 68.6553 223.307 66.5947 223.307 63.9287C223.307 61.1846 223.99 59.0654 225.357 57.5713C226.734 56.0674 228.634 55.3154 231.056 55.3154C233.37 55.3154 235.172 55.9746 236.461 57.293C237.75 58.6113 238.395 60.4326 238.395 62.7568V64.9248H227.833C227.882 66.1943 228.258 67.1855 228.961 67.8984C229.664 68.6113 230.65 68.9678 231.92 68.9678C232.906 68.9678 233.839 68.8652 234.718 68.6602C235.597 68.4551 236.515 68.1279 237.472 67.6787V71.1357C236.69 71.5264 235.855 71.8145 234.967 72C234.078 72.1953 232.994 72.293 231.715 72.293Z" fill="white"/>
<g opacity="0.7" clip-path="url(#clip0)">
<path d="M88.621 35.316C85.183 41.907 78.005 43.914 70.987 47.598C70.987 52.787 70.987 59.813 70.987 61.825C70.987 63.831 68.402 75.501 58.545 75.501C48.685 75.501 45.431 69.855 45.431 67.517C45.431 66.376 45.431 60.292 45.431 54.334C44.463 54.101 43.51 53.769 42.592 53.289C42.592 58.651 42.592 65.177 42.592 67.517C42.592 69.861 38.918 73.206 34.074 73.206C29.23 73.206 19.876 66.349 19.876 61.825C19.876 57.305 19.876 46.421 19.876 46.421C19.876 46.421 6.91398 41.347 3.90598 37.663C0.895977 33.977 -0.607023 32.472 0.229977 30.301C1.03398 28.198 10.756 36.324 16.435 37.663C22.12 39.003 31.974 39.674 36.153 39.508C40.332 39.34 42.672 41.014 45.009 43.187C45.134 43.303 45.28 43.426 45.43 43.548C45.43 42.548 45.43 41.908 45.43 41.908C45.43 39.902 50.777 39.063 53.951 39.063C57.128 39.063 66.477 39.063 68.146 39.063C69.815 39.063 82.771 34.818 85.78 31.466C88.787 28.121 91.854 29.122 88.621 35.316ZM58.688 34.417C64.177 34.417 68.627 29.96 68.627 24.458C68.627 18.957 64.177 14.5 58.688 14.5C53.202 14.5 48.75 18.957 48.75 24.458C48.751 29.96 53.202 34.417 58.688 34.417ZM32.499 34.417C37.988 34.417 42.438 29.96 42.438 24.458C42.438 18.957 37.988 14.5 32.499 14.5C27.01 14.5 22.561 18.957 22.561 24.458C22.561 29.96 27.008 34.417 32.499 34.417Z" fill="white"/>
</g>
<defs>
<clipPath id="clip0">
<rect width="90.001" height="90" fill="white"/>
</clipPath>
</defs>
</svg>
