<svg width="154" height="24" viewBox="0 0 154 24" fill="none" xmlns="http://www.w3.org/2000/svg">
<path opacity="0.7" d="M14.3369 17.0527C14.3369 18.9863 13.6387 20.5098 12.2422 21.623C10.8555 22.7363 8.92188 23.293 6.44141 23.293C4.15625 23.293 2.13477 22.8633 0.376953 22.0039V17.7852C1.82227 18.4297 3.04297 18.8838 4.03906 19.1475C5.04492 19.4111 5.96289 19.543 6.79297 19.543C7.78906 19.543 8.55078 19.3525 9.07812 18.9717C9.61523 18.5908 9.88379 18.0244 9.88379 17.2725C9.88379 16.8525 9.7666 16.4814 9.53223 16.1592C9.29785 15.8271 8.95117 15.5098 8.49219 15.207C8.04297 14.9043 7.12012 14.4209 5.72363 13.7568C4.41504 13.1416 3.43359 12.5508 2.7793 11.9844C2.125 11.418 1.60254 10.7588 1.21191 10.0068C0.821289 9.25488 0.625977 8.37598 0.625977 7.37012C0.625977 5.47559 1.26562 3.98633 2.54492 2.90234C3.83398 1.81836 5.61133 1.27637 7.87695 1.27637C8.99023 1.27637 10.0498 1.4082 11.0557 1.67188C12.0713 1.93555 13.1309 2.30664 14.2344 2.78516L12.7695 6.31543C11.627 5.84668 10.6797 5.51953 9.92773 5.33398C9.18555 5.14844 8.45312 5.05566 7.73047 5.05566C6.87109 5.05566 6.21191 5.25586 5.75293 5.65625C5.29395 6.05664 5.06445 6.5791 5.06445 7.22363C5.06445 7.62402 5.15723 7.97559 5.34277 8.27832C5.52832 8.57129 5.82129 8.85938 6.22168 9.14258C6.63184 9.41602 7.59375 9.91406 9.10742 10.6367C11.1094 11.5938 12.4814 12.5557 13.2236 13.5225C13.9658 14.4795 14.3369 15.6562 14.3369 17.0527ZM22.335 23H17.8672V0.207031H22.335V23ZM26.8467 2.38965C26.8467 0.93457 27.6572 0.207031 29.2783 0.207031C30.8994 0.207031 31.71 0.93457 31.71 2.38965C31.71 3.08301 31.5049 3.625 31.0947 4.01562C30.6943 4.39648 30.0889 4.58691 29.2783 4.58691C27.6572 4.58691 26.8467 3.85449 26.8467 2.38965ZM31.5049 23H27.0371V6.62305H31.5049V23ZM41.3926 23.293C39.4688 23.293 37.9551 22.5459 36.8516 21.0518C35.7578 19.5576 35.2109 17.4873 35.2109 14.8408C35.2109 12.1553 35.7676 10.0654 36.8809 8.57129C38.0039 7.06738 39.5469 6.31543 41.5098 6.31543C43.5703 6.31543 45.1426 7.11621 46.2266 8.71777H46.373C46.1484 7.49707 46.0361 6.4082 46.0361 5.45117V0.207031H50.5186V23H47.0908L46.2266 20.876H46.0361C45.0205 22.4873 43.4727 23.293 41.3926 23.293ZM42.96 19.7334C44.1025 19.7334 44.9375 19.4014 45.4648 18.7373C46.002 18.0732 46.2949 16.9453 46.3438 15.3535V14.8701C46.3438 13.1123 46.0703 11.8525 45.5234 11.0908C44.9863 10.3291 44.1074 9.94824 42.8867 9.94824C41.8906 9.94824 41.1143 10.373 40.5576 11.2227C40.0107 12.0625 39.7373 13.2881 39.7373 14.8994C39.7373 16.5107 40.0156 17.7217 40.5723 18.5322C41.1289 19.333 41.9248 19.7334 42.96 19.7334ZM61.9736 9.49414C61.0264 9.49414 60.2842 9.79688 59.7471 10.4023C59.21 10.998 58.9023 11.8477 58.8242 12.9512H65.0938C65.0742 11.8477 64.7861 10.998 64.2295 10.4023C63.6729 9.79688 62.9209 9.49414 61.9736 9.49414ZM62.6035 23.293C59.9668 23.293 57.9062 22.5654 56.4219 21.1104C54.9375 19.6553 54.1953 17.5947 54.1953 14.9287C54.1953 12.1846 54.8789 10.0654 56.2461 8.57129C57.623 7.06738 59.5225 6.31543 61.9443 6.31543C64.2588 6.31543 66.0605 6.97461 67.3496 8.29297C68.6387 9.61133 69.2832 11.4326 69.2832 13.7568V15.9248H58.7217C58.7705 17.1943 59.1465 18.1855 59.8496 18.8984C60.5527 19.6113 61.5391 19.9678 62.8086 19.9678C63.7949 19.9678 64.7275 19.8652 65.6064 19.6602C66.4854 19.4551 67.4033 19.1279 68.3604 18.6787V22.1357C67.5791 22.5264 66.7441 22.8145 65.8555 23C64.9668 23.1953 63.8828 23.293 62.6035 23.293ZM84.3418 18.1367C84.3418 19.8164 83.7559 21.0957 82.584 21.9746C81.4219 22.8535 79.6787 23.293 77.3545 23.293C76.1631 23.293 75.1475 23.21 74.3076 23.0439C73.4678 22.8877 72.6816 22.6533 71.9492 22.3408V18.6494C72.7793 19.04 73.7119 19.3672 74.7471 19.6309C75.792 19.8945 76.71 20.0264 77.501 20.0264C79.1221 20.0264 79.9326 19.5576 79.9326 18.6201C79.9326 18.2686 79.8252 17.9854 79.6104 17.7705C79.3955 17.5459 79.0244 17.2969 78.4971 17.0234C77.9697 16.7402 77.2666 16.4131 76.3877 16.042C75.1279 15.5146 74.2002 15.0264 73.6045 14.5771C73.0186 14.1279 72.5889 13.6152 72.3154 13.0391C72.0518 12.4531 71.9199 11.7354 71.9199 10.8857C71.9199 9.43066 72.4814 8.30762 73.6045 7.5166C74.7373 6.71582 76.3389 6.31543 78.4092 6.31543C80.3818 6.31543 82.3008 6.74512 84.166 7.60449L82.8184 10.8271C81.998 10.4756 81.2314 10.1875 80.5186 9.96289C79.8057 9.73828 79.0781 9.62598 78.3359 9.62598C77.0176 9.62598 76.3584 9.98242 76.3584 10.6953C76.3584 11.0957 76.5684 11.4424 76.9883 11.7354C77.418 12.0283 78.3506 12.4629 79.7861 13.0391C81.0654 13.5566 82.0029 14.04 82.5986 14.4893C83.1943 14.9385 83.6338 15.4561 83.917 16.042C84.2002 16.6279 84.3418 17.3262 84.3418 18.1367ZM102.945 23H98.4775V13.4346C98.4775 11.0713 97.5986 9.88965 95.8408 9.88965C94.5908 9.88965 93.6875 10.3145 93.1309 11.1641C92.5742 12.0137 92.2959 13.3906 92.2959 15.2949V23H87.8281V0.207031H92.2959V4.85059C92.2959 5.21191 92.2617 6.06152 92.1934 7.39941L92.0908 8.71777H92.3252C93.3213 7.11621 94.9033 6.31543 97.0713 6.31543C98.9951 6.31543 100.455 6.83301 101.451 7.86816C102.447 8.90332 102.945 10.3877 102.945 12.3213V23ZM117.945 23L117.081 20.7734H116.964C116.212 21.7207 115.436 22.3799 114.635 22.751C113.844 23.1123 112.809 23.293 111.529 23.293C109.957 23.293 108.717 22.8438 107.809 21.9453C106.91 21.0469 106.461 19.7676 106.461 18.1074C106.461 16.3691 107.066 15.0898 108.277 14.2695C109.498 13.4395 111.334 12.9805 113.785 12.8926L116.627 12.8047V12.0869C116.627 10.4268 115.777 9.59668 114.078 9.59668C112.77 9.59668 111.231 9.99219 109.464 10.7832L107.984 7.76562C109.869 6.7793 111.959 6.28613 114.254 6.28613C116.451 6.28613 118.136 6.76465 119.308 7.72168C120.479 8.67871 121.065 10.1338 121.065 12.0869V23H117.945ZM116.627 15.4121L114.898 15.4707C113.6 15.5098 112.633 15.7441 111.998 16.1738C111.363 16.6035 111.046 17.2578 111.046 18.1367C111.046 19.3965 111.769 20.0264 113.214 20.0264C114.249 20.0264 115.074 19.7285 115.689 19.1328C116.314 18.5371 116.627 17.7461 116.627 16.7598V15.4121ZM134.82 6.31543C135.426 6.31543 135.929 6.35938 136.329 6.44727L135.992 10.6367C135.631 10.5391 135.191 10.4902 134.674 10.4902C133.248 10.4902 132.135 10.8564 131.334 11.5889C130.543 12.3213 130.147 13.3467 130.147 14.665V23H125.68V6.62305H129.063L129.723 9.37695H129.942C130.45 8.45898 131.134 7.72168 131.993 7.16504C132.862 6.59863 133.805 6.31543 134.82 6.31543ZM146.085 9.49414C145.138 9.49414 144.396 9.79688 143.858 10.4023C143.321 10.998 143.014 11.8477 142.936 12.9512H149.205C149.186 11.8477 148.897 10.998 148.341 10.4023C147.784 9.79688 147.032 9.49414 146.085 9.49414ZM146.715 23.293C144.078 23.293 142.018 22.5654 140.533 21.1104C139.049 19.6553 138.307 17.5947 138.307 14.9287C138.307 12.1846 138.99 10.0654 140.357 8.57129C141.734 7.06738 143.634 6.31543 146.056 6.31543C148.37 6.31543 150.172 6.97461 151.461 8.29297C152.75 9.61133 153.395 11.4326 153.395 13.7568V15.9248H142.833C142.882 17.1943 143.258 18.1855 143.961 18.8984C144.664 19.6113 145.65 19.9678 146.92 19.9678C147.906 19.9678 148.839 19.8652 149.718 19.6602C150.597 19.4551 151.515 19.1279 152.472 18.6787V22.1357C151.69 22.5264 150.855 22.8145 149.967 23C149.078 23.1953 147.994 23.293 146.715 23.293Z" fill="white"/>
</svg>
