<svg width="139" height="58" viewBox="0 0 139 58" fill="none" xmlns="http://www.w3.org/2000/svg">
<g opacity="0.7">
<path fill-rule="evenodd" clip-rule="evenodd" d="M139 30.1386C139 20 134.16 12 124.91 12C115.62 12 110 20 110 30.0594C110 41.9802 116.635 48 126.159 48C130.804 48 134.316 46.9307 136.97 45.4257V37.505C134.316 38.8515 131.272 39.6832 127.408 39.6832C123.622 39.6832 120.265 38.3366 119.836 33.6634H138.922C138.922 33.1485 139 31.0891 139 30.1386ZM119.719 26.3762C119.719 21.901 122.412 20.0396 124.871 20.0396C127.252 20.0396 129.789 21.901 129.789 26.3762H119.719Z" fill="white"/>
<path fill-rule="evenodd" clip-rule="evenodd" d="M95.7143 12C91.8961 12 89.4416 13.7902 88.0779 15.0355L87.5714 12.6227H79V58L88.7403 55.9374L88.7792 44.9239C90.1818 45.9357 92.2467 47.3756 95.6753 47.3756C102.649 47.3756 109 41.7716 109 29.4349C108.961 18.1489 102.532 12 95.7143 12ZM93.3766 38.8139C91.0779 38.8139 89.7143 37.9966 88.7792 36.9848L88.7403 22.5465C89.7532 21.4179 91.1558 20.6396 93.3766 20.6396C96.9221 20.6396 99.3766 24.6091 99.3766 29.7073C99.3766 34.9222 96.961 38.8139 93.3766 38.8139Z" fill="white"/>
<path fill-rule="evenodd" clip-rule="evenodd" d="M66 10L75 7.89883V0L66 2.06226V10Z" fill="white"/>
<path d="M75 13H66V47H75V13Z" fill="white"/>
<path fill-rule="evenodd" clip-rule="evenodd" d="M55.4909 16.2388L54.8364 13.397H46V47H56.2273V24.2267C58.6409 21.2697 62.7318 21.8073 64 22.2298V13.397C62.6909 12.9361 57.9045 12.0912 55.4909 16.2388Z" fill="white"/>
<path fill-rule="evenodd" clip-rule="evenodd" d="M35.5968 5L26.0392 7.01441L26 38.0441C26 43.7775 30.3479 48 36.1452 48C39.3571 48 41.7074 47.4189 43 46.7216V38.8577C41.7465 39.3613 35.5576 41.1432 35.5576 35.4099V21.6577H43V13.4063H35.5576L35.5968 5Z" fill="white"/>
<path fill-rule="evenodd" clip-rule="evenodd" d="M9.96063 22.7209C9.96063 21.178 11.2205 20.5846 13.3071 20.5846C16.2992 20.5846 20.0787 21.4945 23.0709 23.1165V13.8198C19.8031 12.5143 16.5748 12 13.3071 12C5.31496 12 0 16.1934 0 23.1956C0 34.1143 14.9606 32.3736 14.9606 37.0813C14.9606 38.9011 13.3858 39.4945 11.1811 39.4945C7.91339 39.4945 3.74016 38.1495 0.43307 36.3297V45.7451C4.09449 47.3275 7.79528 48 11.1811 48C19.3701 48 25 43.9253 25 36.844C24.9606 25.0549 9.96063 27.1516 9.96063 22.7209Z" fill="white"/>
</g>
</svg>
