<svg width="124" height="39" viewBox="0 0 124 39" fill="none" xmlns="http://www.w3.org/2000/svg">
<g opacity="0.7">
<path d="M49.1535 0L43.0001 36H52.8415L59.0001 0H49.1535Z" fill="white"/>
<path d="M34.891 0.00758173L24.6209 24.593L23.5259 20.8808C21.5005 16.408 15.7505 9.98427 8.99994 5.93598L18.3909 36L29.4863 35.9823L45.9999 0L34.891 0.00758173Z" fill="white"/>
<path d="M19.6803 3.10682C19.108 0.777377 17.4494 0.0830988 15.3907 0H0.12661L0 0.761293C11.8786 3.81182 19.7385 11.162 23 20L19.6803 3.10682Z" fill="white"/>
<path d="M79.2623 7.8927C82.533 7.83973 84.9038 8.57603 86.7449 9.33881L87.6475 9.77582L89 1.58648C87.0201 0.82105 83.9164 0 80.044 0C70.1648 0 63.2016 5.12495 63.1476 12.4694C63.0833 17.8963 68.1077 20.9262 71.9031 22.7352C75.7987 24.5892 77.1049 25.7678 77.0869 27.4232C77.0561 29.9525 73.9807 31.1126 71.1085 31.1126C67.1049 31.1126 64.9784 30.5432 61.6948 29.1341L60.4065 28.5303L59 36.9871C61.3399 38.0439 65.6572 38.9523 70.1391 39C80.6482 39 87.4778 33.936 87.5498 26.0883C87.5935 21.795 84.927 18.5187 79.1491 15.8304C75.6521 14.0771 73.5127 12.9117 73.5333 11.1425C73.5333 9.57188 75.3487 7.8927 79.2623 7.8927Z" fill="white"/>
<path d="M115.662 0H107.7C105.227 0 103.388 0.641324 102.301 2.98948L87.0001 36H97.8218C97.8218 36 99.587 31.5612 99.9872 30.5891C101.172 30.5891 111.686 30.6043 113.184 30.6043C113.491 31.8617 114.44 36 114.44 36H124L115.662 0ZM102.953 23.2164C103.801 21.1485 107.059 13.1497 107.059 13.1497C107.003 13.2481 107.899 11.0666 108.431 9.71076L109.126 12.8164C109.126 12.8164 111.1 21.4162 111.514 23.2164H102.953Z" fill="white"/>
</g>
</svg>
