<svg width="154" height="89" viewBox="0 0 154 89" fill="none" xmlns="http://www.w3.org/2000/svg">
<path opacity="0.7" d="M12.3047 54.4082H29.2969V61H1.61133V56.4834L18.5547 32.0693H1.51367V25.4531H29.126V29.8477L12.3047 54.4082ZM53.7354 54.3594H41.9922L39.9414 61H30.7861L43.8232 25.4531H51.8799L65.0146 61H55.8105L53.7354 54.3594ZM44.043 47.7432H51.6846L47.8516 35.4141L44.043 47.7432ZM96.1914 56.6055C94.873 58.0703 92.9443 59.2503 90.4053 60.1455C87.8662 61.0407 85.083 61.4883 82.0557 61.4883C77.4007 61.4883 73.6816 60.0641 70.8984 57.2158C68.1152 54.3675 66.626 50.4043 66.4307 45.3262L66.4062 42.25C66.4062 38.7507 67.0247 35.6989 68.2617 33.0947C69.4987 30.4743 71.2646 28.4642 73.5596 27.0645C75.8708 25.6484 78.54 24.9404 81.5674 24.9404C85.9945 24.9404 89.4287 25.9577 91.8701 27.9922C94.3278 30.0104 95.7601 33.0296 96.167 37.0498H87.915C87.6221 35.0641 86.9873 33.6481 86.0107 32.8018C85.0342 31.9554 83.6507 31.5322 81.8604 31.5322C79.7119 31.5322 78.0518 32.4437 76.8799 34.2666C75.708 36.0895 75.1139 38.6937 75.0977 42.0791V44.2275C75.0977 47.7757 75.6999 50.445 76.9043 52.2354C78.125 54.0094 80.0374 54.8965 82.6416 54.8965C84.8714 54.8965 86.5316 54.4001 87.6221 53.4072V47.8896H81.665V42.0059H96.1914V56.6055ZM130.273 56.6055C128.955 58.0703 127.026 59.2503 124.487 60.1455C121.948 61.0407 119.165 61.4883 116.138 61.4883C111.483 61.4883 107.764 60.0641 104.98 57.2158C102.197 54.3675 100.708 50.4043 100.513 45.3262L100.488 42.25C100.488 38.7507 101.107 35.6989 102.344 33.0947C103.581 30.4743 105.347 28.4642 107.642 27.0645C109.953 25.6484 112.622 24.9404 115.649 24.9404C120.076 24.9404 123.511 25.9577 125.952 27.9922C128.41 30.0104 129.842 33.0296 130.249 37.0498H121.997C121.704 35.0641 121.069 33.6481 120.093 32.8018C119.116 31.9554 117.733 31.5322 115.942 31.5322C113.794 31.5322 112.134 32.4437 110.962 34.2666C109.79 36.0895 109.196 38.6937 109.18 42.0791V44.2275C109.18 47.7757 109.782 50.445 110.986 52.2354C112.207 54.0094 114.119 54.8965 116.724 54.8965C118.953 54.8965 120.614 54.4001 121.704 53.4072V47.8896H115.747V42.0059H130.273V56.6055Z" fill="white"/>
<circle opacity="0.7" cx="146.5" cy="18.5" r="7.5" fill="white"/>
<circle opacity="0.7" cx="141.5" cy="34.5" r="5.5" fill="white"/>
<circle opacity="0.7" cx="134" cy="28" r="3" fill="white"/>
<circle opacity="0.7" cx="127" cy="12" r="12" fill="white"/>
</svg>
