<svg width="13" height="11" viewBox="0 0 13 11" fill="none" xmlns="http://www.w3.org/2000/svg">
<path d="M13.0002 6.74453V11.001H10.2133V7.02979C10.2133 6.03267 9.81093 5.35172 8.80187 5.35172C8.03182 5.35172 7.57436 5.81016 7.37234 6.25406C7.29897 6.4127 7.28006 6.633 7.28006 6.8555V11.0008H4.49292C4.49292 11.0008 4.53033 4.27491 4.49292 3.57869H7.28027V4.63047C7.27466 4.63876 7.26676 4.64685 7.26177 4.65477H7.28027V4.63047C7.65064 4.12584 8.31116 3.40441 9.79202 3.40441C11.6256 3.40441 13.0002 4.46521 13.0002 6.74453ZM1.57734 0.000976562C0.623973 0.000976562 0.000244141 0.555118 0.000244141 1.28318C0.000244141 1.99577 0.605891 2.56593 1.54076 2.56593H1.55884C2.53091 2.56593 3.13531 1.99577 3.13531 1.28318C3.11681 0.555118 2.53091 0.000976562 1.57734 0.000976562ZM0.165893 11.001H2.95199V3.57869H0.165893V11.001Z" fill="#F1F2F2"/>
</svg>
